<?xml version="1.0" encoding="UTF-8"?><svg id="Layer_1" xmlns="http://www.w3.org/2000/svg" xmlns:xlink="http://www.w3.org/1999/xlink" viewBox="0 0 256 256"><defs><style>.cls-1{fill:url(#linear-gradient);}</style><linearGradient id="linear-gradient" x1="52.85" y1="203.3" x2="203.19" y2="52.96" gradientTransform="matrix(1, 0, 0, 1, 0, 0)" gradientUnits="userSpaceOnUse"><stop offset="0" stop-color="#9a0fb1"/><stop offset=".51" stop-color="#f32c49"/><stop offset="1" stop-color="#f2b821"/></linearGradient></defs><path class="cls-1" d="M183.45,189.97c-.17-.1,.19-.07-1.69-.49h-29.07c.12,.03,.25,.05,.38,.08H76.43c-10.8-.67-18.05,12.81-12.54,23.71,2.39,4.73,6.87,7.79,12.54,7.79h103.1c17.41,0,19.39-26.78,3.92-31.09Zm-3.85,25.23H76.14c-10.3,.73-11.57-19.79,.21-19.79,87.54,0,102.79,0,103.44,0,10.99,.06,11.15,19.8-.18,19.8Zm-.07-180.26s-103.07,0-103.1,0c-10.82,0-18.03,12.86-12.54,23.72,2.15,4.27,6.12,7.04,9.63,7.74,.18,.03,.42,.07,.63,.11h34.74c-.12-.02-.25-.04-.37-.06h71.01c5.41,.32,10.15-3.06,12.55-7.79,5.53-10.92-1.59-23.72-12.55-23.72Zm.07,25.66H76.14c-10.32,.73-11.52-19.8,.21-19.8h103.38c11.11,0,11.2,19.8-.12,19.8Zm-106.16,82.14c7.46,1.45,102.35,19.95,107.94,21.05,3.83,.74,4.91-5.02,1.13-5.75-30.38-5.9-107.92-21.05-107.94-21.05-3.79-.74-4.93,5.01-1.13,5.75Zm1.07-66.82s57.31,10.05,107.94,18.96c3.82,.66,2.82,6.43-1.01,5.77-119.62-21.01-84.92-14.91-107.94-18.95-3.79-.67-2.8-6.44,1.01-5.77Zm.03,30.53s100.56,18.64,107.94,20.01c3.79,.69,2.76,6.46-1.07,5.75-22.26-4.13-25.21-4.65-107.94-20.01-3.79-.7-2.75-6.46,1.07-5.75Zm-.01-15.27s100.58,18.15,107.94,19.48c3.83,.7,2.77,6.46-1.04,5.77-119.86-21.64-86.15-15.54-107.94-19.48-3.8-.7-2.78-6.44,1.04-5.77Zm106.86,88.39c-33.53-6.71-85.69-17.12-107.96-21.57-3.8-.77-2.61-6.51,1.16-5.74,.02,0,79.21,15.83,107.94,21.57,3.79,.74,2.64,6.51-1.14,5.74Zm-106.79-12.06c82.54,16.86,102.32,20.89,107.16,21.96h-29.07c-26.06-5.35-71.33-14.61-79.27-16.23-3.79-.77-2.63-6.51,1.17-5.74Zm106.86-82.67c-32.77-5.6-94.32-16.11-107.31-18.34h34.74c17.72,3.01,39.14,6.7,73.55,12.55,3.82,.67,2.84,6.41-.98,5.78Zm-106.9,36.88s22.64,4.29,107.94,20.52c3.79,.7,2.74,6.46-1.1,5.75-52.83-10.06-93.86-17.85-107.94-20.52-3.81-.74-2.68-6.49,1.1-5.75Z"/></svg>