<?xml version="1.0" encoding="UTF-8"?><svg id="Layer_1" xmlns="http://www.w3.org/2000/svg" xmlns:xlink="http://www.w3.org/1999/xlink" viewBox="0 0 256 256"><defs><style>.cls-1{fill:url(#linear-gradient);}</style><linearGradient id="linear-gradient" x1="30" y1="128" x2="226" y2="128" gradientTransform="matrix(1, 0, 0, 1, 0, 0)" gradientUnits="userSpaceOnUse"><stop offset="0" stop-color="#9a0fb1"/><stop offset=".51" stop-color="#f32c49"/><stop offset="1" stop-color="#f2b821"/></linearGradient></defs><path class="cls-1" d="M172.17,60.72c-.5-.21-1.07-.1-1.45,.29-.38,.39-.47,.97-.24,1.45,6.12,13.08-1.89,30.12-10.61,40.74-.05,.06-.07,.14-.11,.2-.03,.06-.07,.11-.1,.18-.03,.09-.04,.19-.06,.29,0,.06-.03,.12-.02,.19,0,.1,.03,.2,.06,.3,.02,.06,.02,.12,.04,.17,.06,.15,.15,.29,.28,.42,.13,.13,.27,.22,.43,.29s.32,.1,.49,.1c.27,0,.52-.1,.75-.27,.02-.02,.05,0,.07-.03,10.62-8.72,27.66-16.73,40.75-10.61,.49,.23,1.07,.13,1.45-.24,.39-.37,.5-.95,.29-1.45-4.17-9.72-4.07-17.63,.3-24.19l9.87-9.88c.51-.51,.51-1.33,0-1.84l-6.28-6.29c-.24-.24-.57-.38-.92-.38s-.67,.14-.92,.38l-9.88,9.88c-6.56,4.37-14.48,4.47-24.19,.3Zm34.99-7.42l4.45,4.45-8.15,8.15-4.45-4.45,8.16-8.15Zm-10.18,9.81l4.35,4.35,.46,.46c-3.9,6.43-4.27,14.16-1.1,23.03-9.52-3.06-20.4-.17-29.67,4.77l12.1-12.1c.59,.3,1.23,.48,1.91,.48,1.13,0,2.19-.44,2.99-1.24,1.65-1.65,1.65-4.33,0-5.98-1.6-1.6-4.38-1.6-5.98,0h0c-.8,.8-1.24,1.86-1.24,2.99,0,.68,.18,1.33,.48,1.91l-12.09,12.1c4.94-9.27,7.83-20.15,4.77-29.67,8.87,3.17,16.6,2.81,23.03-1.1Zm-13.58,16.76c0-.43,.17-.84,.48-1.15h0c.31-.31,.72-.48,1.15-.48s.84,.17,1.15,.48c.64,.64,.64,1.67,0,2.3-.62,.62-1.69,.62-2.31,0-.31-.31-.48-.72-.48-1.15Zm19.95,36l1.2,1.2c.25,.25,.59,.38,.92,.38s.66-.13,.92-.38l4.14-4.14c.51-.51,.51-1.33,0-1.84l-4.14-4.14c-.49-.49-1.35-.49-1.84,0l-4.14,4.14c-.51,.51-.51,1.33,0,1.84l1.11,1.11c-6.66,6.2-15.26,9.63-24.4,9.63-8.16,0-15.88-2.73-22.19-7.71l.96-.96c.51-.51,.51-1.33,0-1.84l-4.14-4.14c-.51-.51-1.33-.51-1.84,0l-.96,.96c-4.98-6.3-7.71-14.03-7.71-22.19,0-9.15,3.43-17.74,9.63-24.4l1.11,1.11c.24,.24,.57,.38,.92,.38s.67-.14,.92-.38l4.14-4.14c.51-.51,.51-1.33,0-1.84l-4.14-4.14c-.51-.51-1.33-.51-1.84,0l-4.14,4.14c-.51,.51-.51,1.33,0,1.84l1.2,1.2c-6.69,7.15-10.4,16.4-10.4,26.24,0,5.46,1.16,10.72,3.31,15.57l-15.72-15.72c.3-.59,.48-1.23,.48-1.91,0-1.13-.44-2.19-1.24-2.99-1.65-1.65-4.33-1.65-5.98,0h0c-1.65,1.65-1.65,4.33,0,5.98,.8,.8,1.86,1.24,2.99,1.24,.68,0,1.33-.18,1.91-.48l22.54,22.54-1.15,1.15c-.51,.51-.51,1.33,0,1.84l4.14,4.14c.25,.25,.59,.38,.92,.38s.66-.13,.92-.38l1.15-1.15,22.54,22.54c-.81,1.59-.57,3.58,.76,4.9,.82,.82,1.91,1.24,2.99,1.24s2.17-.41,2.99-1.24c1.65-1.65,1.65-4.33,0-5.98-1.32-1.33-3.31-1.57-4.9-.76l-15.73-15.73c4.84,2.15,10.11,3.31,15.57,3.31,9.84,0,19.09-3.7,26.24-10.39Zm2.12-6.17l2.3,2.3-2.3,2.3-2.3-2.3,2.3-2.3Zm-52.57-52.57l2.3,2.3-2.3,2.3-2.3-2.3,2.3-2.3Zm-2.07,54.64l2.3,2.3-.18,.18c-.4-.37-.82-.71-1.21-1.1-.39-.39-.73-.81-1.09-1.21l.18-.18Zm-29.51-24.9c-.64-.64-.64-1.67,0-2.31,.63-.64,1.66-.63,2.3,0,.31,.31,.48,.72,.48,1.15s-.17,.84-.48,1.15c-.64,.64-1.67,.64-2.3,0Zm29.51,29.51l-2.3-2.3,.23-.23,2.3,2.3-.23,.23Zm29.51,24.9c.64,.64,.64,1.67,0,2.3-.64,.63-1.67,.64-2.31,0-.63-.63-.63-1.67,0-2.3,.64-.63,1.67-.64,2.31,0Zm43.05-52.53c-1.44,0-2.61,1.17-2.61,2.61v63.06H35.23V45.44H179.11c1.44,0,2.61-1.17,2.61-2.61s-1.17-2.61-2.61-2.61H32.61c-1.44,0-2.61,1.17-2.61,2.61V179.16c0,1.44,1.17,2.61,2.61,2.61H105.84v16.33h-19.91c-1.44,0-2.61,1.17-2.61,2.61v12.45c0,1.44,1.17,2.61,2.61,2.61h84.15c1.44,0,2.61-1.17,2.61-2.61v-12.45c0-1.44-1.17-2.61-2.61-2.61h-19.91v-16.33h73.22c1.44,0,2.61-1.17,2.61-2.61V91.37c0-1.44-1.17-2.61-2.61-2.61Zm-55.92,121.8H88.54v-7.23h78.93v7.23Zm-22.53-12.45h-33.87v-16.33h33.87v16.33Zm2.61-21.56H35.23v-16.88H220.77v16.88h-73.22Z"/></svg>