<?xml version="1.0" encoding="UTF-8"?><svg id="Layer_1" xmlns="http://www.w3.org/2000/svg" xmlns:xlink="http://www.w3.org/1999/xlink" viewBox="0 0 256 256"><defs><style>.cls-1{fill:url(#linear-gradient);}</style><linearGradient id="linear-gradient" x1="56.56" y1="195.35" x2="204.24" y2="47.68" gradientTransform="matrix(1, 0, 0, 1, 0, 0)" gradientUnits="userSpaceOnUse"><stop offset="0" stop-color="#2966ae"/><stop offset=".38" stop-color="#cd3186"/><stop offset=".68" stop-color="#f0cd23"/><stop offset="1" stop-color="#299b41"/></linearGradient></defs><path class="cls-1" d="M183.06,92.55c-9.81,0-17.8-7.98-17.8-17.79s7.98-17.8,17.8-17.8,17.79,7.98,17.79,17.8-7.98,17.79-17.79,17.79Zm0-28.98c-6.17,0-11.19,5.02-11.19,11.19s5.02,11.19,11.19,11.19,11.19-5.02,11.19-11.19-5.02-11.19-11.19-11.19Zm6.64,10.14c0-2.57-2.09-4.66-4.66-4.66s-4.65,2.09-4.65,4.66,2.08,4.65,4.65,4.65,4.66-2.09,4.66-4.65Zm-60.56,152.08c-2.05,0-4.18-.07-6.31-.23-32.71-2.33-72.78-23.89-86.1-60.58-15.06-41.49-4.56-81.4,28.09-106.75,13.55-10.53,29.37-15.86,47.02-15.86,11.78,0,21.44,2.45,26.45,4.04v-12.89c0-1.82,1.48-3.3,3.3-3.3h16.65c1.33,.06,32.45,1.61,51.47,23.1,22.54,25.48,15.22,61.64,14.89,63.17-.32,1.52-1.68,2.62-3.23,2.62h-80.82c-.69,.06-7.12,.68-9.61,4.95-2.32,3.98-2.03,8.54-1.57,11.16,2.95-.98,7.49-2.07,13.08-2.07,7.06,0,13.95,1.74,20.47,5.16,19.05,10.01,27.42,33.63,19.46,54.96-7.71,20.67-27.11,32.52-53.24,32.52ZM111.85,48.91c-16.09,0-30.55,4.89-42.97,14.54-30.26,23.51-39.96,60.62-25.94,99.28,12.35,34.04,49.77,54.06,80.36,56.25,2.06,.15,4.07,.22,6.04,.22,23.43,0,40.06-10.03,46.85-28.23,6.79-18.21-.23-38.33-16.34-46.8-5.6-2.94-11.47-4.43-17.43-4.43s-10.48,1.49-12.63,2.38c-7.16,2.89-12.22,8.19-15.24,15.87-2.89,7.37-2.99,14.1-.29,20,2.5,5.47,7.42,9.94,13.16,11.97,2.54,.9,5.48,1.37,8.49,1.37,8.92,0,15.81-3.92,18.43-10.48,2.49-6.22,1.1-10.82-.51-13.58-2.39-4.1-6.4-6.37-9.11-6.73-.54-.07-1.06-.11-1.56-.11-5.52,0-8.11,3.96-8.77,5.17-1.19,2.17-1.34,4.4-.37,5.54,.45,.53,.92,.94,1.39,1.21,.08-1.18,.62-2.28,1.53-3.09,.92-.82,2.1-1.27,3.31-1.27,.7,0,1.38,.15,1.99,.45,2.64,1.28,3.21,4.1,2.41,6.11-.18,.43-1.18,2.62-3.62,3.86-1.26,.63-2.69,.97-4.15,.97-2.07,0-5.13-.69-7.91-3.96-2.77-3.26-2.92-8.36-.39-12.99,2.28-4.16,7.29-8.61,14.55-8.61,.8,0,1.62,.05,2.47,.17,4.39,.59,10.4,3.9,13.93,9.95,2.35,4.03,4.42,10.66,.94,19.36-3.65,9.13-12.9,14.58-24.75,14.58-3.74,0-7.36-.59-10.51-1.7-7.4-2.61-13.74-8.39-16.97-15.45-3.42-7.49-3.37-16.19,.15-25.16,3.11-7.93,8.09-13.84,14.81-17.58-.91-3.78-1.74-10.78,2.03-17.25,4.45-7.65,14.71-8.21,15.14-8.24h78.17c1.15-8.44,3.2-35.59-13.8-54.81-17.19-19.44-46.37-20.86-46.66-20.87h-13.2v14.28c0,1.13-.56,2.16-1.5,2.77-.53,.35-1.16,.53-1.79,.53-.46,0-.92-.09-1.34-.28-.12-.05-12.19-5.21-28.42-5.21Z"/></svg>