<svg xml:space="preserve" viewBox="428.16 169.0112449799197 1054.0800000000002 589.6187751004016" y="0px" x="0px" xmlns:xlink="http://www.w3.org/1999/xlink" xmlns="http://www.w3.org/2000/svg" id="Layer_1" version="1.1" style="max-height: 500px" width="1054.0800000000002" height="589.6187751004016">
<g>
	<g>
		<g>
			<g>
				<g>
					<path d="M1547.021-531.691c2.884,0,5.61,0.722,8.184,2.17c2.582,1.45,4.681,3.551,6.313,6.299&#10;&#9;&#9;&#9;&#9;&#9;&#9;c1.622,2.748,2.442,5.767,2.442,9.042c0,3.285-0.82,6.292-2.442,9.051c-1.632,2.749-3.734,4.847-6.33,6.299&#10;&#9;&#9;&#9;&#9;&#9;&#9;c-2.586,1.448-5.305,2.172-8.166,2.172c-2.853,0-5.574-0.724-8.17-2.172c-2.582-1.453-4.689-3.551-6.316-6.299&#10;&#9;&#9;&#9;&#9;&#9;&#9;c-1.627-2.759-2.438-5.767-2.438-9.051c0-3.276,0.812-6.294,2.438-9.042s3.734-4.849,6.316-6.299&#10;&#9;&#9;&#9;&#9;&#9;&#9;C1541.446-530.969,1544.168-531.691,1547.021-531.691z M1547.052-528.26c-2.304,0-4.493,0.578-6.561,1.736&#10;&#9;&#9;&#9;&#9;&#9;&#9;c-2.081,1.156-3.77,2.844-5.074,5.069c-1.3,2.214-1.954,4.644-1.954,7.276c0,2.639,0.654,5.069,1.954,7.285&#10;&#9;&#9;&#9;&#9;&#9;&#9;c1.305,2.216,2.997,3.911,5.082,5.082c2.086,1.163,4.271,1.745,6.553,1.745c2.303,0,4.488-0.583,6.564-1.745&#10;&#9;&#9;&#9;&#9;&#9;&#9;c2.081-1.171,3.765-2.866,5.082-5.082c1.313-2.216,1.972-4.646,1.972-7.285c0-2.632-0.659-5.062-1.972-7.276&#10;&#9;&#9;&#9;&#9;&#9;&#9;c-1.317-2.225-3.001-3.913-5.082-5.069C1551.54-527.682,1549.354-528.26,1547.052-528.26z M1539.365-504.801v-18.591h3.66&#10;&#9;&#9;&#9;&#9;&#9;&#9;c3.642,0,5.797,0.04,6.456,0.118c1.313,0.177,2.381,0.716,3.201,1.605c0.829,0.898,1.243,2.059,1.243,3.487&#10;&#9;&#9;&#9;&#9;&#9;&#9;c0,1.416-0.436,2.594-1.317,3.527c-0.877,0.929-2.041,1.494-3.512,1.705c0.725,0.297,1.313,0.72,1.798,1.274&#10;&#9;&#9;&#9;&#9;&#9;&#9;c0.476,0.561,1.155,1.601,2.037,3.119l2.103,3.756h-4.502l-1.51-3.019c-1.012-2.021-1.84-3.309-2.508-3.83&#10;&#9;&#9;&#9;&#9;&#9;&#9;c-0.667-0.525-1.514-0.793-2.539-0.793h-0.946v7.642H1539.365z M1543.029-515.388h1.452c1.994,0,3.207-0.063,3.651-0.179&#10;&#9;&#9;&#9;&#9;&#9;&#9;c0.598-0.137,1.064-0.419,1.396-0.849c0.345-0.425,0.515-0.931,0.515-1.524c0-0.589-0.179-1.088-0.523-1.494&#10;&#9;&#9;&#9;&#9;&#9;&#9;c-0.354-0.395-0.816-0.674-1.414-0.826c-0.467-0.122-1.675-0.184-3.625-0.184h-1.452V-515.388z" fill="#002B5C"/>
				</g>
			</g>
		</g>
	</g>
	<g>
		<path d="M358.519-488.364c0-10.901,0.891-18.915,2.691-24.038c1.807-5.124,3.765-8.877,5.885-11.285&#10;&#9;&#9;&#9;c4.633-5.224,11.395-7.867,20.279-7.922c12.42,0.055,20.438,5.527,24.027,16.426c2.072,6.269,3.105,14.601,3.105,25.011v15.95&#10;&#9;&#9;&#9;h-16.598v-16.033c0-9.204-0.497-15.427-1.51-18.672c-1.003-3.241-2.225-5.388-3.638-6.456c-1.418-1.069-3.206-1.599-5.388-1.599&#10;&#9;&#9;&#9;c-4.527,0-7.646,2.146-9.365,6.421c-1.719,4.281-2.573,11.017-2.573,20.225v62.298c0,10.903,0.771,18.517,2.329,22.847&#10;&#9;&#9;&#9;c1.562,4.336,4.554,6.495,8.99,6.495c4.441,0,7.416-2.172,8.916-6.537c1.497-4.364,2.238-11.985,2.238-22.886v-15.939h16.764&#10;&#9;&#9;&#9;v15.774c0,15.1-2.055,26.197-6.172,33.309c-4.118,7.115-11.29,10.67-21.536,10.67c-10.247,0-17.55-3.666-21.911-10.997&#10;&#9;&#9;&#9;c-4.362-7.333-6.535-18.371-6.535-33.146V-488.364z M433.557-490.813c0-16.355,2.949-27.58,8.829-33.687&#10;&#9;&#9;&#9;c4.633-4.794,11.363-7.191,20.197-7.191c12.854,0,21.077,5.283,24.689,15.856c2.12,6.266,3.18,14.609,3.18,25.021v63.433&#10;&#9;&#9;&#9;c0,14.979-2.098,25.896-6.294,32.736c-4.192,6.84-11.543,10.26-22.034,10.26c-10.486,0-17.871-3.434-22.146-10.299&#10;&#9;&#9;&#9;c-4.283-6.866-6.421-17.771-6.421-32.697V-490.813z M473.527-491.799c0-9.207-0.729-15.732-2.203-19.58&#10;&#9;&#9;&#9;c-1.47-3.841-4.44-5.762-8.907-5.762s-7.582,1.958-9.322,5.889c-1.74,3.919-2.617,10.377-2.617,19.372v64.665&#10;&#9;&#9;&#9;c0,10.949,0.768,18.397,2.29,22.352c1.526,3.954,4.606,5.922,9.239,5.922c4.624,0,7.712-1.994,9.234-6.003&#10;&#9;&#9;&#9;c1.531-4.009,2.286-11.431,2.286-22.271V-491.799z M512.354-529.896h16.926V-400h26.565v13.974h-43.491V-529.896z&#10;&#9;&#9;&#9; M570.563-529.896h16.921V-400h26.57v13.974h-43.491V-529.896z M628.768-529.896h43.003v14.062h-26.082v49.216h24.686v14.053&#10;&#9;&#9;&#9;h-24.686v52.485h26.404v14.055h-43.325V-529.896z M690.157-489.186c0-21.15,5.016-34.282,15.049-39.397&#10;&#9;&#9;&#9;c3.917-1.972,8.219-2.971,12.912-3.025c8.772,0,15.123,1.863,19.041,5.599c3.926,3.732,6.456,8.672,7.604,14.798&#10;&#9;&#9;&#9;c1.146,6.129,1.723,13.584,1.723,22.354v11.121h-16.358v-18.729c0-7.35-0.745-12.613-2.237-15.774&#10;&#9;&#9;&#9;c-1.501-3.158-4.441-4.744-8.829-4.744c-4.393,0-7.481,1.996-9.283,5.976c-1.792,3.974-2.695,11-2.695,21.08v60.493&#10;&#9;&#9;&#9;c0,11.503,0.794,19.503,2.368,23.996c1.584,4.502,4.698,6.742,9.366,6.742c4.646,0,7.839-2.31,9.558-6.951&#10;&#9;&#9;&#9;c1.723-4.626,2.573-12.665,2.573-24.116v-18.714h-11.69v-13.075h27.229v75.526h-8.916l-2.281-11.108&#10;&#9;&#9;&#9;c-3.22,8.334-9.366,12.504-18.443,12.504c-9.069,0-15.787-3.531-20.149-10.591c-4.357-7.058-6.538-18.267-6.538-33.637V-489.186z&#10;&#9;&#9;&#9; M770.106-529.896h16.921v143.871h-16.921V-529.896z M827.329-529.896h20.354l23.783,143.871H855.53l-4.092-27.462H825.37&#10;&#9;&#9;&#9;l-3.764,27.462h-16.105L827.329-529.896z M827.242-427.215h22.081l-11.367-76.033h-0.245L827.242-427.215z M876.949-529.896&#10;&#9;&#9;&#9;h47.495v14.062h-14.797v129.809H892.81v-129.809h-15.86V-529.896z M938.503-529.896h43.003v14.062h-26.082v49.216h24.69v14.053&#10;&#9;&#9;&#9;h-24.69v52.485h26.409v14.055h-43.33V-529.896z M1041.01-489.186c0-21.15,5.017-34.282,15.05-39.397&#10;&#9;&#9;&#9;c3.922-1.972,8.223-2.971,12.912-3.025c8.771,0,15.123,1.863,19.049,5.599c3.922,3.732,6.456,8.672,7.6,14.798&#10;&#9;&#9;&#9;c1.143,6.129,1.714,13.584,1.714,22.354v11.121h-16.345v-18.729c0-7.35-0.755-12.613-2.251-15.774&#10;&#9;&#9;&#9;c-1.501-3.158-4.44-4.744-8.829-4.744c-4.384,0-7.481,1.996-9.273,5.976c-1.802,3.974-2.701,11-2.701,21.08v60.493&#10;&#9;&#9;&#9;c0,11.503,0.79,19.503,2.373,23.996c1.575,4.502,4.698,6.742,9.354,6.742c4.667,0,7.852-2.31,9.565-6.951&#10;&#9;&#9;&#9;c1.719-4.626,2.578-12.665,2.578-24.116v-18.714h-11.69v-13.075h27.22v75.526h-8.907l-2.29-11.108&#10;&#9;&#9;&#9;c-3.22,8.334-9.361,12.504-18.431,12.504c-9.073,0-15.795-3.531-20.153-10.591c-4.362-7.058-6.543-18.267-6.543-33.637V-489.186z&#10;&#9;&#9;&#9; M1119.655-529.896h30.16c8.559,0,14.713,1.775,18.479,5.322c3.76,3.542,6.023,9.56,6.783,18.057&#10;&#9;&#9;&#9;c0.322,3.488,0.492,8.927,0.492,16.313c0,7.378-0.969,13.577-2.905,18.596c-1.937,5.017-5.356,8.249-10.26,9.728&#10;&#9;&#9;&#9;c3.599,0.602,6.325,2.488,8.175,5.675c1.854,3.193,3.162,8.264,3.922,15.213c0.768,6.945,1.151,17.279,1.151,30.98&#10;&#9;&#9;&#9;c0,13.706,0.432,21.704,1.309,23.987h-16.838c-0.877-1.74-1.309-17.894-1.309-48.468c0-10.304-1.012-16.282-3.027-17.941&#10;&#9;&#9;&#9;c-2.02-1.662-5.073-2.498-9.156-2.498l-10.055-0.567v69.474h-16.921V-529.896z M1158.814-494.656&#10;&#9;&#9;&#9;c0-11.064-0.999-17.468-2.988-19.218c-1.989-1.742-4.863-2.617-8.628-2.617h-10.622v48.564h10.788c3.267,0,5.67-0.628,7.197-1.889&#10;&#9;&#9;&#9;c1.526-1.248,2.608-3.651,3.268-7.189c0.658-3.538,0.985-9.104,0.985-16.674V-494.656z M1213.01-529.896h20.354l23.786,143.871&#10;&#9;&#9;&#9;h-15.938l-4.092-27.462h-26.077l-3.761,27.462h-16.101L1213.01-529.896z M1212.927-427.215h22.072l-11.363-76.033h-0.244&#10;&#9;&#9;&#9;L1212.927-427.215z M1274.312-529.896h28.951c12.746,0,20.751,5.293,24.027,15.861c2.072,6.648,3.11,14.413,3.11,23.305&#10;&#9;&#9;&#9;c0,8.877-0.245,15.551-0.737,20.024c-1.095,9.802-3.682,16.965-7.77,21.453c-4.087,4.498-10.303,6.744-18.631,6.744h-12.018&#10;&#9;&#9;&#9;v56.483h-16.934V-529.896z M1313.471-489.267c0-9.863-0.772-16.869-2.325-21.013c-1.553-4.14-4.624-6.212-9.195-6.212h-10.705&#10;&#9;&#9;&#9;v59.925h10.295c4.799,0,7.987-2.1,9.562-6.301c1.584-4.192,2.369-12.065,2.369-23.625V-489.267z M1387.047-529.896h16.921v143.871&#10;&#9;&#9;&#9;h-16.921v-69.727h-23.058v69.727h-16.922v-143.871h16.922v60.327h23.058V-529.896z M1428.819-529.896h16.921v143.871h-16.921&#10;&#9;&#9;&#9;V-529.896z M1505.17-529.896h15.202l-19.943,73.814l20.598,70.056h-14.713l-14.636-49.698l-12.911,49.698h-15.456l20.607-76.183&#10;&#9;&#9;&#9;l-19.948-67.688h14.797l14.055,47.905L1505.17-529.896z" fill="#002B5C" id="text_8_"/>
		<path d="M391.174-345.926h2.242l-8.973,30.742h-2.06l-7.572-26.04h-0.175l-7.577,26.04h-2.059&#10;&#9;&#9;&#9;l-8.96-30.742h2.596l7.485,25.948h0.175l7.485-25.948h2.242l7.485,25.948h0.179L391.174-345.926z M433.072-315.184v-14.615&#10;&#9;&#9;&#9;h-16.619v14.615h-2.421v-30.742h2.421v13.982h16.619v-13.982h2.426v30.742H433.072z M458.53-315.184v-30.742h18.997l-0.445,2.15&#10;&#9;&#9;&#9;h-16.136v11.832h14.295v2.145h-14.295v12.465h16.537l0.498,2.15H458.53z M520.865-315.116c-0.214,0.044-0.444,0.065-0.711,0.065&#10;&#9;&#9;&#9;c-0.934,0-1.74-0.41-2.447-1.232c-0.702-0.822-1.06-2.355-1.06-4.598c0-3.581-0.624-5.963-1.876-7.145&#10;&#9;&#9;&#9;c-1.261-1.182-2.552-1.773-3.899-1.773h-9.907v14.615h-2.421v-30.742h12.511c1.462,0,2.84,0.32,4.145,0.961&#10;&#9;&#9;&#9;c1.295,0.646,2.347,1.536,3.153,2.692c0.812,1.149,1.217,2.469,1.217,3.96c0,1.078-0.244,2.142-0.719,3.182&#10;&#9;&#9;&#9;c-0.48,1.045-1.144,1.945-1.998,2.691c-0.851,0.75-1.78,1.211-2.792,1.392v0.221c0-0.148,0.454,0.03,1.361,0.534&#10;&#9;&#9;&#9;c0.911,0.515,1.731,1.413,2.464,2.72c0.729,1.298,1.096,3.139,1.096,5.531c0,1.701,0.104,2.946,0.318,3.738&#10;&#9;&#9;&#9;c0.2,0.792,0.427,1.287,0.654,1.479c0.223,0.201,0.654,0.441,1.317,0.74v0.851C521.21-315.203,521.079-315.164,520.865-315.116z&#10;&#9;&#9;&#9; M514.187-332.755c0.925-0.536,1.658-1.26,2.194-2.172c0.541-0.907,0.808-1.906,0.808-2.981c0-1.078-0.267-2.057-0.808-2.96&#10;&#9;&#9;&#9;c-0.536-0.89-1.261-1.603-2.168-2.125c-0.916-0.523-1.924-0.783-3.022-0.783h-10.226v11.832h10.226&#10;&#9;&#9;&#9;C512.259-331.943,513.263-332.216,514.187-332.755z M542.018-315.184v-30.742h19.002l-0.45,2.15h-16.131v11.832h14.299v2.145&#10;&#9;&#9;&#9;h-14.299v12.465h16.537l0.493,2.15H542.018z M624.838-317.422c-2.12,1.787-4.859,2.688-8.196,2.688&#10;&#9;&#9;&#9;c-2.399,0-4.437-0.43-6.125-1.305c-1.688-0.863-3.015-2.416-3.991-4.656c-0.969-2.24-1.457-5.333-1.457-9.283v-1.163&#10;&#9;&#9;&#9;c0-3.941,0.488-7.036,1.457-9.274c0.977-2.24,2.303-3.799,3.991-4.663s3.726-1.298,6.125-1.298c3.371,0,6.111,0.879,8.218,2.646&#10;&#9;&#9;&#9;c2.106,1.758,3.154,4.794,3.154,9.093h-2.373c0-3.558-0.82-6.04-2.461-7.459c-1.648-1.42-3.825-2.131-6.538-2.131&#10;&#9;&#9;&#9;c-2.937,0-5.191,0.905-6.771,2.711c-1.588,1.806-2.378,5.088-2.378,9.841v2.244c0,4.739,0.79,8.024,2.378,9.832&#10;&#9;&#9;&#9;c1.579,1.807,3.834,2.714,6.771,2.714c5.993,0,8.999-3.18,8.999-9.549h2.373C628.014-322.22,626.958-319.217,624.838-317.422z&#10;&#9;&#9;&#9; M651.347-318.076c-2.107-2.225-3.167-6.196-3.167-11.902v-1.163c0-5.706,1.06-9.671,3.167-11.896&#10;&#9;&#9;&#9;c2.103-2.227,5.025-3.339,8.759-3.339c3.729,0,6.652,1.112,8.764,3.339c2.103,2.225,3.158,6.19,3.158,11.896v1.163&#10;&#9;&#9;&#9;c0,5.706-1.056,9.677-3.158,11.902c-2.111,2.229-5.034,3.342-8.764,3.342C656.372-314.734,653.449-315.847,651.347-318.076z&#10;&#9;&#9;&#9; M667.072-319.62c1.692-1.823,2.53-5.097,2.53-9.811v-2.244c0-4.722-0.838-7.998-2.53-9.813c-1.684-1.826-4.009-2.74-6.967-2.74&#10;&#9;&#9;&#9;c-2.953,0-5.278,0.914-6.971,2.74c-1.684,1.814-2.53,5.09-2.53,9.813v2.244c0,4.713,0.847,7.987,2.53,9.811&#10;&#9;&#9;&#9;c1.692,1.823,4.018,2.735,6.971,2.735C663.063-316.885,665.389-317.797,667.072-319.62z M693.947-315.184v-30.742h2.412v28.592&#10;&#9;&#9;&#9;h15.237l0.537,2.15H693.947z M731.405-315.184v-30.742h2.417v28.592h15.241l0.536,2.15H731.405z M768.876-315.184v-30.742h18.993&#10;&#9;&#9;&#9;l-0.445,2.15h-16.136v11.832h14.3v2.145h-14.3v12.465h16.537l0.493,2.15H768.876z M817.851-328.768v-2.103h12.637v10.35&#10;&#9;&#9;&#9;c0,1.317,0.039,2.467,0.118,3.452c0.069,0.984,0.126,1.616,0.157,1.885h-1.658c-0.061-0.184-0.161-0.622-0.297-1.326&#10;&#9;&#9;&#9;c-0.131-0.7-0.274-1.632-0.427-2.801c-0.89,1.588-2.155,2.744-3.782,3.477c-1.627,0.731-3.464,1.1-5.488,1.1&#10;&#9;&#9;&#9;c-2.395,0-4.432-0.43-6.124-1.305c-1.684-0.863-3.015-2.416-3.979-4.656c-0.977-2.24-1.466-5.333-1.466-9.283v-1.163&#10;&#9;&#9;&#9;c0-3.941,0.489-7.036,1.466-9.274c0.964-2.24,2.295-3.799,3.979-4.663c1.692-0.864,3.729-1.298,6.124-1.298&#10;&#9;&#9;&#9;c3.342,0,6.077,0.835,8.197,2.508s3.18,4.523,3.18,8.559h-2.373c0-3.287-0.833-5.597-2.504-6.921&#10;&#9;&#9;&#9;c-1.68-1.33-3.843-1.998-6.5-1.998c-2.931,0-5.186,0.905-6.77,2.711c-1.588,1.806-2.373,5.088-2.373,9.841v2.244&#10;&#9;&#9;&#9;c0,4.739,0.785,8.024,2.373,9.832c1.584,1.807,3.839,2.714,6.77,2.714c6.095,0,9.14-3.18,9.14-9.549v-2.334H817.851z&#10;&#9;&#9;&#9; M852.673-315.184v-30.742h19.002l-0.449,2.15h-16.131v11.832h14.295v2.145h-14.295v12.465h16.537l0.492,2.15H852.673z&#10;&#9;&#9;&#9; M946.521-315.184v-28.012h-0.23l-12.323,28.012h-2.281l-12.236-28.012h-0.227v28.012h-2.146v-30.742h3.848l12.014,27.645h0.044&#10;&#9;&#9;&#9;l12.148-27.645h3.804v30.742H946.521z M972.55-315.184v-30.742h19.006l-0.453,2.15h-16.127v11.832h14.295v2.145h-14.295v12.465&#10;&#9;&#9;&#9;h16.532l0.493,2.15H972.55z M1012.573-315.184v-30.742h19.001l-0.453,2.15h-16.127v11.832h14.299v2.145h-14.299v12.465h16.536&#10;&#9;&#9;&#9;l0.489,2.15H1012.573z M1062.319-343.775v28.592h-2.334v-28.592h-10.395v-2.15h23.119v2.15H1062.319z M1109.016-338.713&#10;&#9;&#9;&#9;c0-1.795-0.745-3.161-2.216-4.103c-1.479-0.936-3.367-1.411-5.675-1.411c-2.36,0-4.258,0.441-5.688,1.324&#10;&#9;&#9;&#9;c-1.436,0.879-2.146,2.277-2.146,4.19c0,1.254,0.371,2.264,1.117,3.025c0.741,0.762,1.671,1.357,2.774,1.793&#10;&#9;&#9;&#9;c1.107,0.437,2.595,0.888,4.479,1.363c2.273,0.598,4.109,1.176,5.492,1.728c1.392,0.554,2.569,1.407,3.542,2.559&#10;&#9;&#9;&#9;c0.973,1.149,1.452,2.693,1.452,4.635c0,3.075-1.007,5.322-3.022,6.744c-2.016,1.424-4.637,2.133-7.86,2.133&#10;&#9;&#9;&#9;c-3.351,0-6.037-0.696-8.074-2.09c-2.033-1.389-3.045-3.633-3.045-6.744l0.043-0.807h2.291l-0.044,1.211&#10;&#9;&#9;&#9;c0,2.183,0.789,3.771,2.377,4.772c1.584,1.007,3.669,1.507,6.269,1.507c5.797,0,8.698-2.199,8.698-6.596&#10;&#9;&#9;&#9;c0-1.398-0.401-2.532-1.19-3.405c-0.794-0.866-1.763-1.52-2.91-1.972c-1.146-0.447-2.73-0.942-4.729-1.477&#10;&#9;&#9;&#9;c-2.211-0.593-3.979-1.167-5.291-1.699c-1.313-0.543-2.435-1.356-3.363-2.445c-0.925-1.093-1.387-2.545-1.387-4.369&#10;&#9;&#9;&#9;c0-2.51,0.963-4.393,2.887-5.645c1.929-1.261,4.362-1.884,7.285-1.884c3.019,0,5.466,0.661,7.351,1.969&#10;&#9;&#9;&#9;c1.88,1.309,2.822,3.346,2.822,6.094v0.584h-2.238V-338.713z M1176.276-317.422c-2.111,1.787-4.847,2.688-8.197,2.688&#10;&#9;&#9;&#9;c-2.386,0-4.423-0.43-6.124-1.305c-1.68-0.863-3.01-2.416-3.979-4.656c-0.977-2.24-1.456-5.333-1.456-9.283v-1.163&#10;&#9;&#9;&#9;c0-3.941,0.479-7.036,1.456-9.274c0.969-2.24,2.299-3.799,3.979-4.663c1.701-0.864,3.738-1.298,6.124-1.298&#10;&#9;&#9;&#9;c3.373,0,6.121,0.879,8.223,2.646c2.111,1.758,3.163,4.794,3.163,9.093h-2.377c0-3.558-0.829-6.04-2.465-7.459&#10;&#9;&#9;&#9;c-1.645-1.42-3.821-2.131-6.544-2.131c-2.927,0-5.182,0.905-6.77,2.711c-1.574,1.806-2.377,5.088-2.377,9.841v2.244&#10;&#9;&#9;&#9;c0,4.739,0.803,8.024,2.377,9.832c1.588,1.807,3.843,2.714,6.77,2.714c6.008,0,9.009-3.18,9.009-9.549h2.377&#10;&#9;&#9;&#9;C1179.465-322.22,1178.4-319.217,1176.276-317.422z M1223.331-315.116c-0.201,0.044-0.445,0.065-0.711,0.065&#10;&#9;&#9;&#9;c-0.925,0-1.74-0.41-2.443-1.232c-0.707-0.822-1.056-2.355-1.056-4.598c0-3.581-0.624-5.963-1.884-7.145&#10;&#9;&#9;&#9;c-1.248-1.182-2.553-1.773-3.896-1.773h-9.898v14.615h-2.425v-30.742h12.502c1.461,0,2.844,0.32,4.152,0.961&#10;&#9;&#9;&#9;c1.291,0.646,2.352,1.536,3.149,2.692c0.812,1.149,1.218,2.469,1.218,3.96c0,1.078-0.236,2.142-0.725,3.182&#10;&#9;&#9;&#9;c-0.471,1.045-1.139,1.945-1.989,2.691c-0.847,0.75-1.788,1.211-2.8,1.392v0.221c0-0.148,0.457,0.03,1.365,0.534&#10;&#9;&#9;&#9;c0.911,0.515,1.731,1.413,2.464,2.72c0.729,1.298,1.095,3.139,1.095,5.531c0,1.701,0.105,2.946,0.314,3.738&#10;&#9;&#9;&#9;c0.214,0.792,0.428,1.287,0.659,1.479c0.218,0.201,0.654,0.441,1.317,0.74v0.851&#10;&#9;&#9;&#9;C1223.676-315.203,1223.549-315.164,1223.331-315.116z M1216.661-332.755c0.925-0.536,1.653-1.26,2.194-2.172&#10;&#9;&#9;&#9;c0.536-0.907,0.807-1.906,0.807-2.981c0-1.078-0.271-2.057-0.807-2.96c-0.541-0.89-1.261-1.603-2.177-2.125&#10;&#9;&#9;&#9;c-0.903-0.523-1.92-0.783-3.023-0.783h-10.212v11.832h10.212C1214.733-331.943,1215.736-332.216,1216.661-332.755z&#10;&#9;&#9;&#9; M1244.491-315.184v-30.742h19.002l-0.449,2.15h-16.136v11.832h14.3v2.145h-14.3v12.465h16.542l0.483,2.15H1244.491z&#10;&#9;&#9;&#9; M1302.435-322.809h-16.223l-3.142,7.625h-2.503l12.729-30.742h2.233l12.729,30.742h-2.64L1302.435-322.809z M1287.11-324.999&#10;&#9;&#9;&#9;h14.43l-7.128-17.615h-0.183L1287.11-324.999z M1334.431-343.775v28.592h-2.334v-28.592h-10.391v-2.15h23.124v2.15H1334.431z&#10;&#9;&#9;&#9; M1362.31-345.926h9.5v2.196h-3.541v26.35h3.541v2.196h-9.5v-2.196h3.537v-26.35h-3.537V-345.926z M1412.945-345.926h2.382&#10;&#9;&#9;&#9;l-11.616,30.742h-2.146l-11.651-30.742h2.639l10.086,26.882h0.223L1412.945-345.926z M1432.531-345.926h9.501v2.196h-3.542v26.35&#10;&#9;&#9;&#9;h3.542v2.196h-9.501v-2.196h3.538v-26.35h-3.538V-345.926z M1473.759-343.775v28.592h-2.325v-28.592h-10.399v-2.15h23.123v2.15&#10;&#9;&#9;&#9;H1473.759z M1512.485-327.107v11.924h-2.425v-11.924l-11.023-18.818h2.822l9.453,16.354h0.14l9.588-16.354h2.465L1512.485-327.107&#10;&#9;&#9;&#9;z" fill="#002B5C" id="text_7_"/>
		<g>
			<g>
				<path d="M936.614-865.75l-1.836-3.394h-0.035c-0.61,0.342-11.935,6.388-29.139,13.939&#10;&#9;&#9;&#9;&#9;&#9;c-17.214,7.566-40.32,16.628-64.438,22.997l-2.875,0.766v2.973c0,29.53,0,34.871,0,35.835c0,0.214,0,0.214,0,0.214&#10;&#9;&#9;&#9;&#9;&#9;c0,3.507,0,50.732,0,80.067c0,7.996,1.179,16.245,4.219,24.577c2.281,6.243,5.605,12.515,10.216,18.714&#10;&#9;&#9;&#9;&#9;&#9;c6.914,9.329,16.677,18.524,30.143,27.481c13.444,8.964,30.597,17.73,52.338,26.199l1.408,0.545l1.396-0.545&#10;&#9;&#9;&#9;&#9;&#9;c19.328-7.542,35.015-15.293,47.727-23.215c9.522-5.95,17.356-11.992,23.777-18.118c9.61-9.174,16.01-18.559,19.971-27.942&#10;&#9;&#9;&#9;&#9;&#9;c3.947-9.373,5.439-18.714,5.439-27.696c0-29.335,0-76.56,0-80.067c0-0.131,0-0.214,0-0.214c0-0.964,0-6.305,0-35.835v-2.973&#10;&#9;&#9;&#9;&#9;&#9;l-2.884-0.766c-24.498-6.474-47.944-15.719-65.249-23.346c-8.633-3.817-15.752-7.228-20.677-9.68&#10;&#9;&#9;&#9;&#9;&#9;c-2.474-1.224-4.401-2.208-5.701-2.886c-0.654-0.342-1.147-0.602-1.483-0.779c-0.166-0.083-0.292-0.152-0.375-0.189&#10;&#9;&#9;&#9;&#9;&#9;l-0.096-0.057h-0.014l-1.832-0.999l-1.836,0.999L936.614-865.75l-1.836,3.392c0.069,0.042,11.367,6.142,28.908,13.872&#10;&#9;&#9;&#9;&#9;&#9;c17.54,7.742,41.31,17.13,66.383,23.761l0.986-3.743h-3.856c0,29.53,0,34.871,0,35.835c0,0,0,0.083,0,0.214&#10;&#9;&#9;&#9;&#9;&#9;c0,3.507,0,50.732,0,80.067c0,7.244-1.052,14.548-3.756,21.925c-2.016,5.538-4.973,11.119-9.156,16.772&#10;&#9;&#9;&#9;&#9;&#9;c-6.281,8.471-15.346,17.069-28.21,25.645c-12.868,8.584-29.527,17.115-50.871,25.418l1.408,3.599l1.396-3.599&#10;&#9;&#9;&#9;&#9;&#9;c-18.976-7.388-34.243-14.954-46.432-22.559c-9.151-5.704-16.563-11.451-22.534-17.154c-8.956-8.55-14.675-17.025-18.178-25.355&#10;&#9;&#9;&#9;&#9;&#9;c-3.516-8.323-4.846-16.533-4.846-24.692c0-29.335,0-76.56,0-80.067c0,0,0,0,0-0.214c0-0.964,0-6.305,0-35.835h-3.87l1,3.743&#10;&#9;&#9;&#9;&#9;&#9;c25.068-6.631,48.838-16.019,66.37-23.761c17.558-7.73,28.855-13.831,28.925-13.872L936.614-865.75l-1.836,3.392L936.614-865.75&#10;&#9;&#9;&#9;&#9;&#9;z" fill="#A61D31"/>
				<path d="M936.614-631.456c-74.174-29.863-82.863-60.396-82.863-80.896v-107.313&#10;&#9;&#9;&#9;&#9;&#9;c37.253-10.82,70.17-26.606,82.863-33.034c12.689,6.428,45.59,22.214,82.855,33.034v107.313&#10;&#9;&#9;&#9;&#9;&#9;C1019.47-691.853,1010.771-661.319,936.614-631.456z" fill="#A61D31"/>
				<path d="M878.528-804.356h-2.343c0,1.107-0.437,2.094-1.16,2.82c-0.725,0.722-1.71,1.161-2.818,1.173&#10;&#9;&#9;&#9;&#9;&#9;c-1.108-0.013-2.094-0.451-2.817-1.173c-0.729-0.726-1.17-1.712-1.17-2.82c0-1.106,0.441-2.092,1.17-2.818&#10;&#9;&#9;&#9;&#9;&#9;c0.724-0.718,1.709-1.162,2.817-1.162s2.094,0.444,2.818,1.162c0.724,0.727,1.16,1.712,1.16,2.818H878.528h2.342&#10;&#9;&#9;&#9;&#9;&#9;c0-2.38-0.977-4.552-2.529-6.129c-1.575-1.56-3.748-2.537-6.134-2.53c-2.395-0.007-4.567,0.971-6.129,2.53&#10;&#9;&#9;&#9;&#9;&#9;c-1.562,1.577-2.543,3.749-2.543,6.129c0,2.395,0.981,4.569,2.543,6.144c1.562,1.551,3.734,2.517,6.129,2.517&#10;&#9;&#9;&#9;&#9;&#9;c2.386,0,4.571-0.966,6.134-2.517c1.553-1.574,2.529-3.749,2.529-6.144H878.528z" fill="#FDFEFF"/>
				<path d="M945.077-724.741h-2.334c0,1.684-0.68,3.191-1.784,4.282c-1.104,1.11-2.604,1.782-4.292,1.782&#10;&#9;&#9;&#9;&#9;&#9;c-1.68,0-3.176-0.672-4.279-1.782c-1.1-1.091-1.779-2.598-1.779-4.282c0-1.679,0.68-3.193,1.779-4.292&#10;&#9;&#9;&#9;&#9;&#9;c1.104-1.095,2.6-1.78,4.279-1.78c1.688,0,3.188,0.685,4.292,1.78c1.104,1.1,1.784,2.613,1.784,4.292H945.077h2.338&#10;&#9;&#9;&#9;&#9;&#9;c0-2.953-1.199-5.662-3.141-7.605c-1.928-1.941-4.637-3.145-7.607-3.145c-2.958,0-5.649,1.204-7.586,3.145&#10;&#9;&#9;&#9;&#9;&#9;c-1.945,1.943-3.149,4.652-3.149,7.605c0,2.958,1.204,5.665,3.149,7.592c1.937,1.943,4.628,3.149,7.586,3.149&#10;&#9;&#9;&#9;&#9;&#9;c2.971,0,5.68-1.206,7.607-3.149c1.941-1.928,3.141-4.635,3.141-7.592H945.077z" fill="#FDFEFF"/>
				<path d="M1007.478-804.356h-2.347c0,1.107-0.444,2.094-1.169,2.82c-0.729,0.722-1.71,1.161-2.822,1.173&#10;&#9;&#9;&#9;&#9;&#9;c-1.1-0.013-2.081-0.451-2.81-1.173c-0.72-0.726-1.169-1.712-1.169-2.82c0-1.106,0.449-2.092,1.169-2.818&#10;&#9;&#9;&#9;&#9;&#9;c0.729-0.718,1.71-1.162,2.81-1.162c1.112,0,2.094,0.444,2.822,1.162c0.725,0.727,1.169,1.712,1.169,2.818H1007.478h2.338&#10;&#9;&#9;&#9;&#9;&#9;c0-2.38-0.977-4.552-2.529-6.129c-1.579-1.56-3.752-2.537-6.146-2.53c-2.382-0.007-4.555,0.971-6.115,2.53&#10;&#9;&#9;&#9;&#9;&#9;c-1.57,1.577-2.539,3.749-2.539,6.129c0,2.395,0.969,4.569,2.539,6.144c1.561,1.551,3.733,2.517,6.115,2.517&#10;&#9;&#9;&#9;&#9;&#9;c2.395,0,4.567-0.966,6.146-2.517c1.553-1.574,2.529-3.749,2.529-6.144H1007.478z" fill="#FDFEFF"/>
				<polyline points="878.528,-802.112 994.823,-802.112 994.823,-806.599 878.528,-806.599" fill="#FDFEFF"/>
				<polygon points="941.277,-787.037 941.277,-789.281 936.667,-789.281 930.634,-789.281 901.154,-724.946 &#10;&#9;&#9;&#9;&#9;&#9;914.105,-692.592 914.105,-682.332 936.667,-682.332 936.693,-682.332 959.245,-682.332 959.245,-692.592 972.179,-724.946 &#10;&#9;&#9;&#9;&#9;&#9;942.713,-789.281 941.277,-789.281 941.277,-787.037 939.224,-786.105 967.312,-724.819 954.766,-693.453 954.766,-686.82 &#10;&#9;&#9;&#9;&#9;&#9;936.693,-686.82 936.667,-686.82 918.581,-686.82 918.581,-693.453 906.044,-724.819 933.518,-784.795 936.667,-784.795 &#10;&#9;&#9;&#9;&#9;&#9;941.277,-784.795 941.277,-787.037 939.224,-786.105" fill="#FDFEFF"/>
				<polyline points="938.922,-733.151 938.922,-787.037 934.429,-787.037 934.429,-733.151" fill="#FDFEFF"/>
				<path d="M912.169-686.82v17.896h48.77v-2.231v-15.664H912.169z M916.653-682.332h39.791v8.921h-39.791V-682.332z" fill="#FDFEFF"/>
				<path d="M877.185-743.372c0-16.402,6.635-31.229,17.383-41.984c10.744-10.75,25.576-17.387,41.973-17.387&#10;&#9;&#9;&#9;&#9;&#9;c16.406,0,31.238,6.637,41.986,17.387c10.753,10.755,17.392,25.582,17.392,41.984h4.484c0-17.632-7.146-33.597-18.7-45.148&#10;&#9;&#9;&#9;&#9;&#9;c-11.551-11.555-27.521-18.709-45.162-18.709c-17.614,0-33.593,7.154-45.144,18.709c-11.542,11.551-18.71,27.517-18.7,45.148&#10;&#9;&#9;&#9;&#9;&#9;H877.185z" fill="#FDFEFF"/>
				<rect height="17.466" width="17.658" fill="#A61D31" y="-751.917" x="865.751"/>
				<polygon points="883.409,-734.451 883.409,-736.695 867.984,-736.695 867.984,-749.675 881.154,-749.675 &#10;&#9;&#9;&#9;&#9;&#9;881.154,-734.451 883.409,-734.451 883.409,-736.695 883.409,-734.451 885.643,-734.451 885.643,-754.15 863.505,-754.15 &#10;&#9;&#9;&#9;&#9;&#9;863.505,-732.215 885.643,-732.215 885.643,-734.451" fill="#FDFEFF"/>
				<rect height="17.466" width="17.653" fill="#A61D31" y="-751.917" x="989.152"/>
				<polygon points="1006.806,-734.451 1006.806,-736.695 991.399,-736.695 991.399,-749.675 1004.573,-749.675 &#10;&#9;&#9;&#9;&#9;&#9;1004.573,-734.451 1006.806,-734.451 1006.806,-736.695 1006.806,-734.451 1009.057,-734.451 1009.057,-754.15 986.915,-754.15 &#10;&#9;&#9;&#9;&#9;&#9;986.915,-732.215 1009.057,-732.215 1009.057,-734.451" fill="#FDFEFF"/>
				<rect height="17.461" width="17.654" fill="#A61D31" y="-812.98" x="927.868"/>
				<polygon points="945.522,-795.519 945.522,-797.759 930.11,-797.759 930.11,-810.736 943.288,-810.736 &#10;&#9;&#9;&#9;&#9;&#9;943.288,-795.519 945.522,-795.519 945.522,-797.759 945.522,-795.519 947.772,-795.519 947.772,-815.219 925.626,-815.219 &#10;&#9;&#9;&#9;&#9;&#9;925.626,-793.274 947.772,-793.274 947.772,-795.519" fill="#FDFEFF"/>
			</g>
			<path d="M1146.749-721.264c-2.779,1.969-5.736,4.567-8.336,7.795c-4.044,4.757-7.355,10.316-10.051,16.321&#10;&#9;&#9;&#9;&#9;c1.788-7.619,3.049-15.239,3.777-23.043c0.17-2.148,0.35-4.303,0.44-6.458c5.558-1.16,11.036-4.931,15.251-12.009&#10;&#9;&#9;&#9;&#9;c2.146-3.68,3.934-8.068,4.837-12.735c0.267-1.165,0.44-2.325,0.633-3.586l0.262-1.793l0.092-1.79&#10;&#9;&#9;&#9;&#9;c0.183-2.424,0.183-4.932,0-7.442c-2.774,1.163-5.471,3.043-7.888,5.553c-1.168,1.261-2.342,2.689-3.406,4.214&#10;&#9;&#9;&#9;&#9;c-1.086,1.525-2.159,3.317-3.149,5.108c-0.985,1.891-1.793,3.775-2.604,5.747c-0.798,1.97-1.605,4.037-2.146,6.099&#10;&#9;&#9;&#9;&#9;c-0.353,1.071-0.527,2.057-0.89,3.134c-0.271,0.984-0.54,1.972-0.72,2.958c0.096-5.021,0-9.948-0.361-14.973&#10;&#9;&#9;&#9;&#9;c-0.267-4.931-0.803-9.863-1.605-14.701c2.416-1.077,4.663-2.693,6.727-4.929c2.229-2.512,4.393-5.836,5.636-9.955&#10;&#9;&#9;&#9;&#9;c0.724-2.065,1.261-4.218,1.622-6.456c0.354-2.242,0.441-4.576,0.441-6.999c0-1.158,0-2.419-0.088-3.583&#10;&#9;&#9;&#9;&#9;c-0.087-1.169-0.266-2.421-0.44-3.68c-0.183-1.252-0.357-2.419-0.632-3.671c-0.275-1.252-0.533-2.423-0.903-3.675&#10;&#9;&#9;&#9;&#9;c-1.243,0.802-2.417,1.88-3.49,3.047c-1.077,1.165-2.146,2.508-3.049,4.033c-0.898,1.524-1.788,3.141-2.509,4.844&#10;&#9;&#9;&#9;&#9;c-0.366,0.894-0.729,1.791-0.994,2.685c-0.354,0.995-0.624,1.979-0.981,2.964c-0.624,2.065-1.077,4.122-1.439,6.181&#10;&#9;&#9;&#9;&#9;c-0.357,2.067-0.711,4.214-0.886,6.458c-0.1,1.082-0.184,2.148-0.184,3.229c0,0.985-0.091,1.969-0.091,2.964&#10;&#9;&#9;&#9;&#9;c-0.445-2.155-0.89-4.31-1.344-6.465c-1.706-7.524-3.948-14.879-6.731-22.143c2.164-1.524,4.04-3.585,5.566-6.189&#10;&#9;&#9;&#9;&#9;c0.891-1.519,1.619-3.132,2.238-4.923c0.545-1.791,0.99-3.771,1.256-5.926c0.629-4.295,0.175-8.871-0.711-13.623&#10;&#9;&#9;&#9;&#9;c-0.545-2.334-1.261-4.666-2.067-6.993c-0.44-1.169-0.812-2.338-1.339-3.5c-0.55-1.163-1.087-2.236-1.711-3.317&#10;&#9;&#9;&#9;&#9;c-2.059,2.154-3.677,4.934-4.846,8.249c-1.261,3.315-1.963,7.086-2.146,11.21c-0.453,6.279,0.184,12.727,1.436,19.096&#10;&#9;&#9;&#9;&#9;c-3.407-8.157-7.442-16.044-12.109-23.582c-0.624-0.986-1.257-1.88-1.881-2.866c1.793-1.972,3.225-4.393,4.215-7.263&#10;&#9;&#9;&#9;&#9;c1.072-3.23,1.431-6.999,1.072-11.39c-0.89-8.517-4.842-17.839-11.376-25.554c-1.618,2.598-2.604,5.647-3.054,9.056&#10;&#9;&#9;&#9;&#9;c-0.271,1.704-0.271,3.505-0.271,5.47c0,1.882,0.175,3.95,0.449,6.009c0.179,1.077,0.354,2.063,0.536,3.137&#10;&#9;&#9;&#9;&#9;c0.175,0.985,0.45,2.059,0.629,3.141c0.536,2.059,1.16,4.122,1.885,6.181c0.628,1.979,1.439,3.95,2.242,5.924&#10;&#9;&#9;&#9;&#9;c-3.499-4.938-7.176-9.684-11.119-14.26c-2.518-2.953-5.195-5.832-7.975-8.611c0.615-0.979,1.068-2.059,1.518-3.221&#10;&#9;&#9;&#9;&#9;c0.541-1.438,0.899-3.052,1.078-4.755c0.184-1.703,0.184-3.496,0-5.376c-0.092-0.984-0.271-1.976-0.449-2.958&#10;&#9;&#9;&#9;&#9;c-0.18-0.986-0.454-1.979-0.803-3.047c-0.637-2.07-1.531-4.131-2.521-6.19c-0.986-2.065-2.325-3.946-3.668-5.917&#10;&#9;&#9;&#9;&#9;c-0.721-0.985-1.436-1.976-2.151-2.872c-0.815-0.895-1.622-1.795-2.513-2.689c-0.898-0.895-1.793-1.701-2.695-2.598&#10;&#9;&#9;&#9;&#9;c-0.886-0.898-1.881-1.704-2.857-2.423c-0.55,1.431-0.812,2.962-0.99,4.482c-0.188,1.612-0.271,3.315-0.092,5.027&#10;&#9;&#9;&#9;&#9;c0.092,1.704,0.357,3.584,0.807,5.375c0.18,0.899,0.454,1.88,0.813,2.779c0.274,0.992,0.623,1.978,0.98,2.958&#10;&#9;&#9;&#9;&#9;c0.711,1.974,1.519,3.95,2.514,5.832c0.898,1.88,1.875,3.847,3.044,5.739c0.546,0.896,1.165,1.791,1.789,2.776&#10;&#9;&#9;&#9;&#9;c0.55,0.807,1.081,1.62,1.622,2.513c-2.334-2.245-4.754-4.393-7.268-6.456c-5.107-4.306-10.481-8.251-16.048-11.926&#10;&#9;&#9;&#9;&#9;c0.803-2.51,1.16-5.287,0.903-8.336c-0.184-1.701-0.541-3.498-1.086-5.287c-0.629-1.799-1.436-3.682-2.5-5.562&#10;&#9;&#9;&#9;&#9;c-2.068-3.86-5.025-7.263-8.523-10.574c-3.586-3.053-7.713-6.02-12.188-8.168c-0.453,2.964-0.101,6.192,0.886,9.507&#10;&#9;&#9;&#9;&#9;c0.986,3.404,2.521,6.901,4.847,10.399c3.323,5.381,7.538,10.223,12.375,14.613c-0.454-0.264-0.898-0.539-1.353-0.807&#10;&#9;&#9;&#9;&#9;l-6.094-3.494l-6.269-3.228c-0.985-0.541-2.067-0.986-3.141-1.522l-3.232-1.435c-1.073-0.447-2.154-0.99-3.228-1.442l-3.22-1.252&#10;&#9;&#9;&#9;&#9;l-0.366,0.984c0.449-2.951,0.266-6.098-0.711-9.412c-1.086-3.23-2.957-6.543-5.832-9.86c-5.74-6.456-14.435-11.656-24.21-13.989&#10;&#9;&#9;&#9;&#9;c0.449,6.096,3.856,12.196,9.68,18.29c0.715,0.72,1.535,1.429,2.246,2.155c0.808,0.72,1.519,1.429,2.421,2.148&#10;&#9;&#9;&#9;&#9;c1.614,1.438,3.311,2.689,5.104,3.858c3.503,2.598,7.359,4.746,11.303,6.809l0,0c-4.219-1.339-8.611-1.791-12.82-1.791&#10;&#9;&#9;&#9;&#9;c-2.146,0.089-4.214,0.355-6.182,0.72c-0.985,0.183-1.976,0.364-2.957,0.63c-0.99,0.266-1.889,0.622-2.875,0.977&#10;&#9;&#9;&#9;&#9;c-7.35,2.873-11.834,7.989-13.897,13.455c7.62,0.264,15.241-0.269,22.504-2.868c3.582-1.169,6.813-2.776,9.51-4.663&#10;&#9;&#9;&#9;&#9;c2.683-1.793,4.921-4.039,6.635-6.548l-0.366,0.993l3.236,1.254c1.069,0.44,2.146,0.894,3.133,1.426l3.132,1.439&#10;&#9;&#9;&#9;&#9;c1.086,0.45,2.163,0.899,3.149,1.527l6.182,3.134l6.006,3.407c0.357,0.177,0.725,0.445,1.078,0.63&#10;&#9;&#9;&#9;&#9;c-6.012-2.065-12.28-2.695-17.934-1.791c-3.947,0.715-7.268,1.967-9.959,3.76c-2.778,1.791-4.924,4.037-6.455,6.635&#10;&#9;&#9;&#9;&#9;c3.677,0.896,7.459,1.795,11.219,1.976c3.761,0.445,7.617,0.264,11.377-0.087c1.893-0.177,3.682-0.539,5.479-0.992&#10;&#9;&#9;&#9;&#9;c1.692-0.445,3.307-0.896,4.842-1.526c2.684-1.073,5.021-2.598,6.984-4.293c5.479,3.671,10.762,7.521,15.869,11.826&#10;&#9;&#9;&#9;&#9;c2.521,2.063,4.847,4.214,7.167,6.369c-0.798-0.532-1.692-0.986-2.499-1.437c-0.986-0.447-1.972-0.896-2.953-1.344&#10;&#9;&#9;&#9;&#9;c-1.977-0.805-3.952-1.524-5.924-1.976c-1.972-0.443-4.035-0.717-5.911-0.798c-0.999-0.096-1.889-0.096-2.874,0&#10;&#9;&#9;&#9;&#9;c-0.986,0.081-1.889,0.177-2.775,0.264c-1.792,0.269-3.406,0.72-4.938,1.342c-1.518,0.541-2.861,1.261-4.214,2.155&#10;&#9;&#9;&#9;&#9;c-1.256,0.896-2.425,1.882-3.485,2.956c0.886,0.451,1.688,0.813,2.596,1.258c0.89,0.452,1.697,0.809,2.596,1.165&#10;&#9;&#9;&#9;&#9;c0.89,0.36,1.793,0.722,2.687,0.99c0.903,0.355,1.793,0.622,2.696,0.986c1.788,0.628,3.673,0.984,5.553,1.429&#10;&#9;&#9;&#9;&#9;c1.889,0.454,3.678,0.724,5.649,0.901c0.985,0.092,1.889,0.092,2.87,0.179c0.898,0,1.793,0.089,2.7,0&#10;&#9;&#9;&#9;&#9;c1.788-0.087,3.481-0.275,5.095-0.539c1.618-0.266,3.232-0.717,4.668-1.341c1.082-0.456,2.15-0.896,3.132-1.436&#10;&#9;&#9;&#9;&#9;c2.7,2.776,5.296,5.56,7.896,8.515c3.855,4.487,7.441,9.145,10.849,13.987c-1.522-1.346-3.05-2.687-4.667-3.852&#10;&#9;&#9;&#9;&#9;c-1.789-1.169-3.586-2.242-5.375-3.049c-0.898-0.454-1.793-0.896-2.778-1.165c-0.986-0.362-1.889-0.628-2.875-0.9&#10;&#9;&#9;&#9;&#9;c-1.88-0.447-3.76-0.805-5.47-0.89c-1.789-0.096-3.49,0-5.104,0.266c-3.225,0.534-6.099,1.704-8.52,3.317&#10;&#9;&#9;&#9;&#9;c6.007,4.748,12.555,8.785,19.904,10.932c3.581,1.176,7.167,1.71,10.491,1.797c2.87,0.091,5.653-0.264,8.153-1.073&#10;&#9;&#9;&#9;&#9;c0.632,0.986,1.26,1.882,1.792,2.868c4.489,7.35,8.433,15.069,11.752,22.954c-3.677-5.2-8.341-9.322-13.353-11.924&#10;&#9;&#9;&#9;&#9;c-3.59-1.703-7.002-2.598-10.229-2.783c-3.311-0.179-6.36,0.452-9.144,1.527c0.629,0.717,1.262,1.435,1.885,2.146&#10;&#9;&#9;&#9;&#9;c0.629,0.729,1.248,1.438,1.876,2.155c1.261,1.439,2.7,2.689,4.131,3.945c2.778,2.511,6.007,4.757,9.235,6.637&#10;&#9;&#9;&#9;&#9;c1.618,0.894,3.314,1.704,5.024,2.33c1.614,0.624,3.224,1.164,4.833,1.616c2.783,0.717,5.566,0.894,8.258,0.63&#10;&#9;&#9;&#9;&#9;c2.679,7.08,4.926,14.43,6.631,21.872c0.445,2.059,0.895,4.214,1.344,6.272c-0.357-0.894-0.72-1.696-1.16-2.598&#10;&#9;&#9;&#9;&#9;c-0.55-0.988-1.087-1.88-1.619-2.778c-1.16-1.791-2.242-3.494-3.586-5.019c-1.352-1.525-2.782-2.962-4.301-4.127&#10;&#9;&#9;&#9;&#9;c-0.811-0.63-1.526-1.169-2.329-1.703c-0.815-0.534-1.614-0.981-2.421-1.339c-1.614-0.816-3.232-1.437-4.764-1.797&#10;&#9;&#9;&#9;&#9;c-1.518-0.447-3.132-0.63-4.654-0.722c-1.527-0.087-3.045,0.092-4.58,0.364c0.458,0.805,0.907,1.703,1.356,2.513&#10;&#9;&#9;&#9;&#9;c0.437,0.805,0.89,1.611,1.422,2.419c0.546,0.809,1.087,1.614,1.618,2.421c0.546,0.807,1.078,1.616,1.614,2.331&#10;&#9;&#9;&#9;&#9;c1.077,1.521,2.338,2.956,3.678,4.391c1.261,1.431,2.595,2.779,4.034,4.04c2.953,2.508,5.741,4.478,8.786,5.915&#10;&#9;&#9;&#9;&#9;c2.595,1.256,5.286,1.967,7.987,2.325c0.706,4.842,1.242,9.686,1.518,14.526c0.275,4.844,0.449,9.775,0.357,14.707&#10;&#9;&#9;&#9;&#9;c-0.183-0.896-0.357-1.887-0.633-2.785c-0.262-1.071-0.623-2.059-0.985-3.041c-0.711-1.969-1.514-3.946-2.499-5.649&#10;&#9;&#9;&#9;&#9;c-0.986-1.793-2.16-3.411-3.407-4.934c-1.261-1.522-2.521-2.861-3.952-3.945c-1.431-1.073-2.87-2.06-4.301-2.777&#10;&#9;&#9;&#9;&#9;c-2.967-1.437-5.92-2.242-8.877-2.333c0.449,1.882,0.985,3.682,1.696,5.472l0.55,1.341l0.445,1.344&#10;&#9;&#9;&#9;&#9;c0.357,0.898,0.715,1.797,1.072,2.6c1.701,3.499,3.504,6.816,5.824,9.863c4.218,5.743,9.33,9.778,14.709,11.569&#10;&#9;&#9;&#9;&#9;c-0.101,2.154-0.275,4.303-0.453,6.458c-0.712,7.529-1.968,15.064-3.665,22.504c0.083-6.368-1.261-12.465-3.86-17.572&#10;&#9;&#9;&#9;&#9;c-1.885-3.497-4.035-6.282-6.631-8.249c-2.6-2.068-5.391-3.407-8.253-4.127c0.083,1.88,0.358,3.852,0.537,5.741&#10;&#9;&#9;&#9;&#9;c0.174,1.88,0.532,3.76,1.077,5.649c0.715,3.673,2.059,7.346,3.59,10.762c0.803,1.701,1.692,3.315,2.691,4.842&#10;&#9;&#9;&#9;&#9;c0.891,1.522,1.876,2.864,2.953,4.122c1.885,2.151,4.035,3.941,6.277,5.289c-2.517,9.407-5.924,18.555-9.959,27.349&#10;&#9;&#9;&#9;&#9;c1.357-6.192,1.357-12.377-0.271-17.941c-0.532-1.878-1.164-3.668-1.967-5.193c-0.812-1.616-1.798-3.044-2.783-4.305&#10;&#9;&#9;&#9;&#9;c-2.063-2.506-4.484-4.397-7.163-5.739c-1.178,7.534-1.256,15.331,0.532,22.775c1.614,6.997,4.567,12.637,8.786,16.406&#10;&#9;&#9;&#9;&#9;c-4.393,8.7-9.501,17.13-15.338,24.923c2.617-5.826,3.952-12.009,3.503-17.747c-0.184-3.856-1.344-7.355-2.778-10.317&#10;&#9;&#9;&#9;&#9;c-0.725-1.429-1.614-2.777-2.601-3.941c-0.99-1.169-2.063-2.242-3.319-3.137c-2.688,7.174-4.301,14.792-4.035,22.413&#10;&#9;&#9;&#9;&#9;c0,3.762,0.624,7.356,1.619,10.495c0.798,2.774,2.059,5.197,3.672,7.346c-1.971,2.515-4.034,4.93-6.094,7.261&#10;&#9;&#9;&#9;&#9;c-4.396,4.938-9.06,9.599-13.984,14.081c3.756-5.112,6.268-10.94,6.983-16.681c0.985-7.795-1.073-14.16-5.021-18.74&#10;&#9;&#9;&#9;&#9;c-4.118,6.456-7.168,13.631-8.507,21.161c-0.724,3.765-0.907,7.268-0.55,10.583c0.275,2.866,0.986,5.56,2.068,7.982&#10;&#9;&#9;&#9;&#9;c-7.442,6.181-15.416,11.743-23.766,16.491c-0.078,0.087-0.174,0.087-0.354,0.183c4.746-4.209,8.428-9.329,10.4-14.883&#10;&#9;&#9;&#9;&#9;c1.348-3.68,1.705-7.263,1.526-10.493c-0.271-3.226-1.174-6.275-2.596-8.877c-5.296,5.474-9.688,11.832-12.65,18.831&#10;&#9;&#9;&#9;&#9;c-1.422,3.496-2.421,6.903-2.783,10.227c-0.353,2.857-0.174,5.643,0.362,8.249c-14.338,7.442-29.854,12.639-45.725,15.418&#10;&#9;&#9;&#9;&#9;l0.358,2.063c16.145-2.783,31.831-8.069,46.365-15.607c1.788,1.976,4.018,3.68,6.81,4.842c1.518,0.63,3.311,1.169,5.199,1.524&#10;&#9;&#9;&#9;&#9;c1.876,0.362,3.936,0.631,6.081,0.539c8.702,0,18.212-3.405,26.544-9.143c-2.408-1.791-5.379-3.049-8.785-3.847&#10;&#9;&#9;&#9;&#9;c-3.402-0.818-7.259-0.993-11.377-0.818c-6.194,0.364-12.463,1.706-18.657,3.68c0.092-0.087,0.267-0.087,0.366-0.175&#10;&#9;&#9;&#9;&#9;c8.516-4.844,16.576-10.5,24.114-16.685c2.151,1.527,4.751,2.696,7.699,3.326c3.324,0.622,7.185,0.622,11.481-0.273&#10;&#9;&#9;&#9;&#9;c8.428-1.795,17.043-7.086,23.939-14.345c-5.461-2.51-12.642-2.606-20.707-0.362c-2.059,0.539-4.035,1.169-6.011,1.97&#10;&#9;&#9;&#9;&#9;c-2.063,0.724-4.035,1.621-5.907,2.598c-0.994,0.452-1.979,0.995-2.874,1.533c-0.895,0.443-1.793,0.986-2.6,1.438&#10;&#9;&#9;&#9;&#9;c5.024-4.486,9.771-9.243,14.255-14.262c2.146-2.424,4.214-4.845,6.182-7.355c2.421,1.082,5.199,1.616,8.249,1.616&#10;&#9;&#9;&#9;&#9;c3.406,0,7.18-0.894,11.128-2.598c7.891-3.497,15.232-10.312,20.528-18.923c-1.436-0.353-2.962-0.53-4.571-0.53&#10;&#9;&#9;&#9;&#9;c-1.61,0-3.32,0.177-5.021,0.443c-3.411,0.63-7.001,1.976-10.762,3.773c-5.47,2.774-10.766,6.534-15.604,10.844&#10;&#9;&#9;&#9;&#9;c5.916-7.983,11.124-16.498,15.604-25.377c5.554,1.171,12.105-0.089,18.827-4.84c7.001-5.023,12.912-13.182,16.411-22.683&#10;&#9;&#9;&#9;&#9;c-3.05-0.09-6.19,0.532-9.41,1.882c-1.613,0.622-3.228,1.525-4.846,2.506c-1.609,0.986-3.324,2.155-4.938,3.409&#10;&#9;&#9;&#9;&#9;c-4.926,3.858-9.322,8.698-13.17,13.985c4.209-9.054,7.616-18.467,10.304-28.151c2.691,0,5.378-0.532,8.161-1.793&#10;&#9;&#9;&#9;&#9;c1.514-0.717,3.133-1.611,4.746-2.689c1.535-1.163,3.049-2.515,4.488-4.128c3.054-3.135,5.375-7.08,7.351-11.381&#10;&#9;&#9;&#9;&#9;c0.898-2.155,1.706-4.484,2.421-6.813c0.725-2.332,1.174-4.842,1.527-7.35C1152.576-724.579,1149.619-723.233,1146.749-721.264z" fill="#AD8B3A"/>
			<path d="M834.466-590.718c-0.366-3.324-1.348-6.73-2.792-10.227c-2.861-6.988-7.259-13.357-12.642-18.829&#10;&#9;&#9;&#9;&#9;c-1.426,2.604-2.416,5.562-2.6,8.877c-0.175,3.228,0.184,6.816,1.535,10.496c1.885,5.47,5.549,10.578,10.399,14.883&#10;&#9;&#9;&#9;&#9;c-0.096-0.091-0.183-0.091-0.357-0.179c-8.428-4.755-16.323-10.317-23.765-16.498c1.081-2.421,1.797-5.119,2.067-7.983&#10;&#9;&#9;&#9;&#9;c0.357-3.317,0.175-6.901-0.546-10.581c-1.343-7.524-4.393-14.707-8.51-21.156c-3.952,4.478-6.099,10.847-5.021,18.735&#10;&#9;&#9;&#9;&#9;c0.711,5.826,3.224,11.564,6.993,16.674c-4.934-4.393-9.593-9.056-13.985-14.077c-2.159-2.327-4.131-4.842-6.103-7.259&#10;&#9;&#9;&#9;&#9;c1.618-2.155,2.778-4.661,3.682-7.35c0.981-3.141,1.601-6.724,1.601-10.496c0.196-7.708-1.339-15.237-4.021-22.413&#10;&#9;&#9;&#9;&#9;c-1.178,0.899-2.242,1.969-3.324,3.141c-0.986,1.16-1.889,2.508-2.6,3.938c-1.535,2.873-2.596,6.367-2.774,10.314&#10;&#9;&#9;&#9;&#9;c-0.454,5.828,0.807,11.931,3.485,17.756c-5.828-7.893-10.928-16.232-15.32-24.932c4.214-3.85,7.167-9.5,8.781-16.408&#10;&#9;&#9;&#9;&#9;c1.705-7.441,1.705-15.239,0.537-22.769c-2.684,1.257-5.104,3.137-7.172,5.739c-1.078,1.256-1.968,2.685-2.779,4.305&#10;&#9;&#9;&#9;&#9;c-0.802,1.61-1.43,3.313-1.98,5.195c-1.518,5.471-1.601,11.743-0.257,17.933c-4.035-8.786-7.354-18.016-9.959-27.337&#10;&#9;&#9;&#9;&#9;c2.242-1.357,4.401-3.149,6.277-5.296c1.082-1.259,2.067-2.598,2.958-4.125c0.98-1.527,1.884-3.138,2.691-4.839&#10;&#9;&#9;&#9;&#9;c1.531-3.407,2.874-7.089,3.585-10.764c0.45-1.88,0.803-3.767,1.078-5.647c0.179-1.889,0.453-3.762,0.536-5.738&#10;&#9;&#9;&#9;&#9;c-2.87,0.716-5.648,2.059-8.253,4.122c-2.596,2.068-4.746,4.753-6.631,8.249c-2.6,5.11-3.947,11.204-3.856,17.573&#10;&#9;&#9;&#9;&#9;c-1.701-7.436-2.961-14.884-3.668-22.504c-0.192-2.148-0.371-4.303-0.454-6.458c5.379-1.791,10.399-5.825,14.71-11.564&#10;&#9;&#9;&#9;&#9;c2.32-3.051,4.117-6.36,5.827-9.863c0.354-0.898,0.803-1.697,1.073-2.598l0.44-1.339l0.537-1.353&#10;&#9;&#9;&#9;&#9;c0.724-1.791,1.256-3.581,1.71-5.466c-2.958,0.083-5.924,0.803-8.877,2.327c-1.439,0.718-2.857,1.703-4.302,2.785&#10;&#9;&#9;&#9;&#9;c-1.431,1.073-2.691,2.412-3.952,3.946c-1.247,1.52-2.416,3.221-3.402,4.927c-0.895,1.788-1.793,3.677-2.504,5.646&#10;&#9;&#9;&#9;&#9;c-0.366,0.986-0.724,1.972-0.999,3.049c-0.179,0.898-0.437,1.882-0.624,2.779c-0.087-4.923,0-9.77,0.362-14.705&#10;&#9;&#9;&#9;&#9;c0.262-4.844,0.812-9.769,1.522-14.521c2.6-0.269,5.291-1.073,7.982-2.332c3.059-1.439,5.824-3.406,8.786-5.917&#10;&#9;&#9;&#9;&#9;c1.439-1.25,2.774-2.606,4.035-4.037c1.256-1.436,2.504-2.866,3.682-4.393c0.536-0.812,1.068-1.522,1.614-2.33&#10;&#9;&#9;&#9;&#9;c0.536-0.807,1.068-1.614,1.609-2.421c0.536-0.809,0.99-1.616,1.435-2.421c0.445-0.809,0.899-1.703,1.349-2.508&#10;&#9;&#9;&#9;&#9;c-1.436-0.271-2.963-0.366-4.585-0.366c-1.519,0.096-3.045,0.272-4.65,0.72c-1.531,0.451-3.146,0.99-4.763,1.799&#10;&#9;&#9;&#9;&#9;c-0.803,0.355-1.61,0.896-2.413,1.337c-0.812,0.543-1.522,1.082-2.329,1.704c-1.531,1.263-2.957,2.606-4.314,4.124&#10;&#9;&#9;&#9;&#9;c-1.335,1.527-2.504,3.23-3.581,5.021c-0.536,0.898-1.073,1.792-1.614,2.783c-0.449,0.805-0.807,1.706-1.16,2.604&#10;&#9;&#9;&#9;&#9;c0.445-2.157,0.803-4.223,1.339-6.281c1.71-7.442,3.952-14.698,6.631-21.874c2.608,0.266,5.378,0.089,8.253-0.631&#10;&#9;&#9;&#9;&#9;c1.609-0.362,3.224-0.894,4.842-1.611c1.706-0.631,3.324-1.429,5.021-2.334c3.224-1.882,6.456-4.035,9.23-6.633&#10;&#9;&#9;&#9;&#9;c1.439-1.254,2.874-2.513,4.135-3.941c0.624-0.726,1.261-1.437,1.885-2.154c0.619-0.72,1.248-1.438,1.876-2.155&#10;&#9;&#9;&#9;&#9;c-2.774-1.075-5.828-1.703-9.14-1.524c-3.236,0.183-6.635,1.08-10.229,2.781c-5.025,2.602-9.768,6.727-13.353,11.924&#10;&#9;&#9;&#9;&#9;c3.311-7.887,7.263-15.604,11.734-22.95c0.628-0.99,1.261-1.887,1.802-2.873c2.508,0.81,5.282,1.167,8.156,1.082&#10;&#9;&#9;&#9;&#9;c3.32-0.096,6.91-0.628,10.491-1.795c7.351-2.249,13.898-6.194,19.905-10.94c-2.417-1.614-5.292-2.776-8.52-3.317&#10;&#9;&#9;&#9;&#9;c-1.614-0.269-3.32-0.364-5.108-0.269c-1.802,0.083-3.595,0.445-5.466,0.896c-0.986,0.269-1.889,0.534-2.875,0.896&#10;&#9;&#9;&#9;&#9;c-0.985,0.357-1.889,0.711-2.773,1.163c-1.793,0.896-3.682,1.891-5.379,3.049c-1.623,1.167-3.149,2.423-4.663,3.858&#10;&#9;&#9;&#9;&#9;c3.397-4.84,6.988-9.505,10.845-13.994c2.504-2.953,5.111-5.738,7.887-8.508c0.994,0.532,1.98,1.066,3.141,1.431&#10;&#9;&#9;&#9;&#9;c1.435,0.539,3.053,0.984,4.667,1.339c1.61,0.272,3.307,0.543,5.104,0.543c0.898,0,1.788,0,2.695,0&#10;&#9;&#9;&#9;&#9;c0.895,0,1.88-0.092,2.865-0.179c1.885-0.179,3.766-0.452,5.654-0.898c1.871-0.362,3.76-0.805,5.553-1.436&#10;&#9;&#9;&#9;&#9;c0.902-0.269,1.797-0.624,2.691-0.986c0.895-0.264,1.797-0.628,2.683-0.99c0.907-0.355,1.793-0.711,2.604-1.16&#10;&#9;&#9;&#9;&#9;c0.902-0.445,1.705-0.899,2.604-1.254c-1.077-1.071-2.242-2.067-3.498-2.962c-1.261-0.809-2.695-1.526-4.209-2.148&#10;&#9;&#9;&#9;&#9;c-1.536-0.541-3.137-0.983-4.942-1.346c-0.886-0.179-1.789-0.268-2.774-0.268c-0.886,0-1.889,0-2.875,0&#10;&#9;&#9;&#9;&#9;c-1.967,0.089-3.939,0.355-5.91,0.807c-1.973,0.454-3.953,1.165-5.924,1.97c-0.986,0.451-1.963,0.809-2.949,1.35&#10;&#9;&#9;&#9;&#9;c-0.812,0.445-1.715,0.981-2.518,1.431c2.334-2.24,4.664-4.395,7.181-6.364c5.021-4.214,10.396-8.159,15.865-11.834&#10;&#9;&#9;&#9;&#9;c1.972,1.793,4.388,3.224,6.992,4.303c1.527,0.622,3.137,1.075,4.847,1.521c1.692,0.449,3.581,0.813,5.471,0.99&#10;&#9;&#9;&#9;&#9;c3.76,0.357,7.615,0.536,11.376,0.091c3.852-0.268,7.542-1.082,11.211-1.98c-1.623-2.502-3.769-4.746-6.46-6.633&#10;&#9;&#9;&#9;&#9;c-2.684-1.795-6.008-3.052-9.946-3.763c-5.649-0.896-11.927-0.274-17.933,1.791c0.361-0.177,0.715-0.445,1.077-0.628l6.007-3.405&#10;&#9;&#9;&#9;&#9;l6.186-3.136c0.986-0.545,2.063-0.99,3.137-1.529l3.141-1.431c1.082-0.452,2.067-0.984,3.141-1.438l3.219-1.259l-0.798-1.969&#10;&#9;&#9;&#9;&#9;l-3.237,1.261c-1.063,0.44-2.146,0.977-3.219,1.428l-3.224,1.434c-1.082,0.453-2.159,0.988-3.146,1.526l-6.277,3.224&#10;&#9;&#9;&#9;&#9;l-6.089,3.501c-0.454,0.268-0.903,0.534-1.356,0.807c4.764-4.486,9.056-9.319,12.375-14.609c2.251-3.5,3.865-6.999,4.851-10.413&#10;&#9;&#9;&#9;&#9;c0.974-3.311,1.243-6.541,0.886-9.492c-4.563,2.146-8.602,5.104-12.188,8.153c-3.499,3.315-6.456,6.724-8.52,10.574&#10;&#9;&#9;&#9;&#9;c-1.073,1.891-1.871,3.775-2.504,5.571c-0.628,1.79-0.903,3.583-1.086,5.289c-0.271,3.047,0.1,5.832,0.898,8.334&#10;&#9;&#9;&#9;&#9;c-5.563,3.679-10.932,7.62-16.053,11.919c-2.504,2.068-4.925,4.223-7.25,6.461c0.536-0.803,1.068-1.616,1.609-2.511&#10;&#9;&#9;&#9;&#9;c0.619-0.896,1.165-1.793,1.789-2.776c1.173-1.88,2.159-3.763,3.045-5.736c0.99-1.885,1.797-3.86,2.521-5.832&#10;&#9;&#9;&#9;&#9;c0.35-0.986,0.624-1.968,0.986-2.962c0.266-0.984,0.527-1.88,0.803-2.776c0.444-1.88,0.711-3.68,0.807-5.375&#10;&#9;&#9;&#9;&#9;c0.096-1.712,0.096-3.414-0.096-5.03c-0.179-1.607-0.537-3.042-0.986-4.479c-0.985,0.717-1.972,1.616-2.861,2.421&#10;&#9;&#9;&#9;&#9;c-0.898,0.807-1.797,1.703-2.687,2.6c-0.908,0.901-1.706,1.791-2.504,2.696c-0.816,0.985-1.536,1.873-2.164,2.865&#10;&#9;&#9;&#9;&#9;c-1.344,1.977-2.683,3.85-3.673,5.918c-0.995,2.063-1.885,4.122-2.509,6.181c-0.357,0.993-0.632,2.065-0.811,3.052&#10;&#9;&#9;&#9;&#9;c-0.175,0.985-0.358,1.972-0.449,2.962c-0.18,1.88-0.18,3.67,0,5.376c0.174,1.704,0.549,3.317,1.077,4.755&#10;&#9;&#9;&#9;&#9;c0.444,1.16,0.985,2.242,1.518,3.228c-2.679,2.777-5.37,5.647-7.974,8.604c-3.948,4.576-7.621,9.329-11.119,14.253&#10;&#9;&#9;&#9;&#9;c0.803-1.972,1.613-3.852,2.242-5.911c0.707-2.063,1.339-4.126,1.885-6.188c0.27-1.075,0.444-2.061,0.623-3.141&#10;&#9;&#9;&#9;&#9;c0.188-0.986,0.445-2.068,0.545-3.141c0.271-2.06,0.45-4.033,0.45-6.005c0-1.88,0-3.673-0.275-5.472&#10;&#9;&#9;&#9;&#9;c-0.449-3.407-1.522-6.539-3.049-9.054c-6.539,7.714-10.491,17.039-11.381,25.553c-0.358,4.397,0.087,8.157,1.068,11.386&#10;&#9;&#9;&#9;&#9;c0.99,2.879,2.421,5.295,4.21,7.265c-0.624,0.986-1.243,1.88-1.871,2.875c-4.572,7.524-8.607,15.418-12.109,23.575&#10;&#9;&#9;&#9;&#9;c1.26-6.456,1.88-12.82,1.435-19.098c-0.175-4.122-0.985-7.891-2.146-11.21c-1.179-3.228-2.793-6.004-4.843-8.247&#10;&#9;&#9;&#9;&#9;c-0.632,1.08-1.169,2.242-1.71,3.326c-0.532,1.158-0.985,2.325-1.344,3.485c-0.803,2.333-1.526,4.667-2.063,6.999&#10;&#9;&#9;&#9;&#9;c-0.895,4.752-1.344,9.232-0.721,13.629c0.275,2.148,0.721,4.118,1.257,5.917c0.628,1.795,1.353,3.496,2.237,4.934&#10;&#9;&#9;&#9;&#9;c1.536,2.598,3.416,4.656,5.566,6.181c-2.691,7.169-5.017,14.615-6.727,22.147c-0.536,2.154-0.985,4.303-1.339,6.458&#10;&#9;&#9;&#9;&#9;c0-0.981-0.096-1.968-0.096-2.96c0-1.077-0.083-2.152-0.179-3.23c-0.175-2.148-0.533-4.301-0.895-6.458&#10;&#9;&#9;&#9;&#9;c-0.366-2.059-0.803-4.124-1.436-6.179c-0.274-0.986-0.623-1.98-0.99-2.958c-0.262-0.898-0.619-1.889-0.99-2.695&#10;&#9;&#9;&#9;&#9;c-0.711-1.793-1.518-3.407-2.504-4.836c-0.898-1.524-1.972-2.785-3.049-4.037c-1.077-1.169-2.246-2.15-3.507-3.049&#10;&#9;&#9;&#9;&#9;c-0.35,1.165-0.611,2.421-0.886,3.675c-0.275,1.254-0.449,2.419-0.628,3.68c-0.175,1.252-0.358,2.421-0.45,3.671&#10;&#9;&#9;&#9;&#9;c-0.082,1.263-0.082,2.421-0.082,3.592c0,2.413,0.174,4.746,0.449,6.991c0.357,2.24,0.885,4.393,1.597,6.456&#10;&#9;&#9;&#9;&#9;c1.36,4.125,3.42,7.438,5.657,9.952c2.059,2.238,4.306,3.85,6.723,4.931c-0.707,4.836-1.34,9.77-1.614,14.701&#10;&#9;&#9;&#9;&#9;c-0.262,5.019-0.445,9.956-0.349,14.979c-0.275-0.993-0.454-1.979-0.729-2.964c-0.258-1.082-0.533-2.059-0.886-3.138&#10;&#9;&#9;&#9;&#9;c-0.628-2.065-1.344-4.125-2.164-6.094c-0.798-1.976-1.601-3.95-2.591-5.739c-0.99-1.88-2.059-3.592-3.141-5.107&#10;&#9;&#9;&#9;&#9;c-1.082-1.529-2.242-2.962-3.407-4.216c-2.421-2.508-5.021-4.397-7.892-5.562c-0.082,2.511-0.082,5.021,0,7.444l0.092,1.788&#10;&#9;&#9;&#9;&#9;l0.271,1.798c0.175,1.169,0.354,2.418,0.624,3.583c0.898,4.661,2.696,8.971,4.842,12.735c4.214,6.988,9.685,10.76,15.242,12.009&#10;&#9;&#9;&#9;&#9;c0.087,2.155,0.27,4.31,0.449,6.456c0.724,7.798,2.067,15.43,3.769,23.046c-2.687-5.915-6.011-11.471-10.046-16.311&#10;&#9;&#9;&#9;&#9;c-2.604-3.236-5.563-5.836-8.336-7.808c-2.871-1.976-5.828-3.228-8.79-3.767c0.362,2.517,0.798,4.936,1.526,7.359&#10;&#9;&#9;&#9;&#9;c0.72,2.325,1.519,4.659,2.422,6.805c2.063,4.31,4.393,8.256,7.354,11.39c1.432,1.612,2.963,2.953,4.48,4.129&#10;&#9;&#9;&#9;&#9;c1.614,1.163,3.132,2.062,4.755,2.691c2.778,1.252,5.562,1.791,8.157,1.791c2.6,9.686,6.098,19.091,10.316,28.153&#10;&#9;&#9;&#9;&#9;c-3.952-5.289-8.249-10.131-13.187-13.987c-1.614-1.348-3.312-2.421-4.93-3.407c-1.609-0.99-3.224-1.792-4.837-2.519&#10;&#9;&#9;&#9;&#9;c-3.232-1.34-6.374-1.968-9.418-1.869c3.489,9.407,9.317,17.655,16.401,22.679c6.64,4.755,13.274,6.004,18.827,4.842&#10;&#9;&#9;&#9;&#9;c4.484,8.877,9.688,17.305,15.607,25.368c-4.842-4.301-10.037-8.063-15.607-10.849c-3.76-1.88-7.346-3.132-10.753-3.763&#10;&#9;&#9;&#9;&#9;c-1.706-0.359-3.407-0.451-5.017-0.451c-1.613,0-3.145,0.181-4.571,0.543c5.282,8.515,12.72,15.327,20.532,18.919&#10;&#9;&#9;&#9;&#9;c4.026,1.703,7.704,2.598,11.111,2.598c3.049,0,5.744-0.539,8.248-1.612c1.977,2.509,4.035,5.019,6.186,7.351&#10;&#9;&#9;&#9;&#9;c4.48,5.025,9.239,9.771,14.265,14.256c-0.903-0.537-1.71-0.984-2.604-1.436c-0.985-0.543-1.976-0.986-2.865-1.522&#10;&#9;&#9;&#9;&#9;c-1.98-0.985-3.953-1.795-5.924-2.604c-1.973-0.805-3.943-1.431-6.008-1.967c-8.069-2.15-15.24-2.068-20.711,0.355&#10;&#9;&#9;&#9;&#9;c6.905,7.261,15.516,12.557,23.943,14.35c4.21,0.894,8.162,0.894,11.478,0.266c2.948-0.628,5.553-1.791,7.717-3.315&#10;&#9;&#9;&#9;&#9;c7.521,6.277,15.595,11.833,24.114,16.673c0.082,0.091,0.257,0.091,0.357,0.179c-6.186-1.97-12.467-3.315-18.648-3.671&#10;&#9;&#9;&#9;&#9;c-4.219-0.179-7.987,0-11.395,0.798c-3.406,0.813-6.363,1.978-8.785,3.867c8.249,5.739,17.842,9.144,26.531,9.144&#10;&#9;&#9;&#9;&#9;c2.159,0.089,4.223-0.177,6.111-0.541c1.875-0.362,3.581-0.896,5.199-1.524c2.774-1.165,5.021-2.868,6.81-4.845&#10;&#9;&#9;&#9;&#9;c14.53,7.531,30.222,12.827,46.361,15.604l0.349-2.059c-15.957-2.694-31.373-7.983-45.725-15.425&#10;&#9;&#9;&#9;&#9;C834.636-585.075,834.823-587.852,834.466-590.718z" fill="#AD8B3A"/>
			<path d="M865.572-908.207c0.808-0.717,1.618-1.435,2.421-2.155c0.807-0.708,1.519-1.433,2.246-2.148&#10;&#9;&#9;&#9;&#9;c5.824-6.099,9.23-12.195,9.676-18.297c-9.775,2.336-18.557,7.629-24.205,13.987c-2.871,3.328-4.746,6.635-5.828,9.867&#10;&#9;&#9;&#9;&#9;c-0.986,3.315-1.261,6.456-0.72,9.418c3.947-2.068,7.804-4.223,11.298-6.818C862.257-905.52,863.958-906.778,865.572-908.207z" fill="#AD8B3A"/>
			<path d="M874-896.913c-0.898-0.355-1.889-0.713-2.866-0.986c-0.994-0.266-1.98-0.452-2.966-0.63&#10;&#9;&#9;&#9;&#9;c-1.963-0.355-4.03-0.628-6.182-0.711c-4.209,0-8.606,0.445-12.824,1.793c1.705,2.513,3.947,4.656,6.639,6.545&#10;&#9;&#9;&#9;&#9;c2.688,1.883,5.911,3.494,9.501,4.668c7.259,2.501,14.889,3.132,22.5,2.863C885.835-889.02,881.263-894.13,874-896.913z" fill="#AD8B3A"/>
			<path d="M934.075-936.812l7.434,14.884l16.415,2.421l-11.927,11.655l2.871,16.408l-14.793-7.797l-14.7,7.797&#10;&#9;&#9;&#9;&#9;l2.857-16.408l-11.917-11.655l16.41-2.421L934.075-936.812z" fill="#AD8B3A"/>
			<path d="M934.075-599.507l7.434,14.971l16.415,2.423l-11.927,11.566l2.871,16.408l-14.793-7.715l-14.7,7.715&#10;&#9;&#9;&#9;&#9;l2.857-16.408l-11.917-11.566l16.41-2.423L934.075-599.507z" fill="#AD8B3A"/>
			<rect height="3.029" width="33.336" fill="#FDFEFF" y="-679.383" x="919.886"/>
		</g>
	</g>
</g>
<g>
	<rect height="751.112" width="1135.609" fill="#002B5C" y="102.669" x="385.417"/>
	<g>
		<g>
			<g>
				<g>
					<g>
						<path d="M1427.146,532.97c2.354,0,4.578,0.587,6.679,1.77c2.107,1.186,3.82,2.897,5.151,5.141&#10;&#9;&#9;&#9;&#9;&#9;&#9;&#9;c1.324,2.243,1.994,4.706,1.994,7.384c0,2.677-0.67,5.134-1.994,7.384c-1.331,2.243-3.047,3.958-5.166,5.141&#10;&#9;&#9;&#9;&#9;&#9;&#9;&#9;c-2.11,1.182-4.328,1.773-6.664,1.773c-2.328,0-4.55-0.591-6.668-1.773c-2.107-1.182-3.827-2.898-5.155-5.141&#10;&#9;&#9;&#9;&#9;&#9;&#9;&#9;c-1.328-2.25-1.99-4.707-1.99-7.384c0-2.678,0.662-5.141,1.99-7.384c1.328-2.243,3.048-3.955,5.155-5.141&#10;&#9;&#9;&#9;&#9;&#9;&#9;&#9;C1422.596,533.557,1424.817,532.97,1427.146,532.97z M1427.171,535.768c-1.88,0-3.668,0.474-5.355,1.421&#10;&#9;&#9;&#9;&#9;&#9;&#9;&#9;c-1.697,0.939-3.075,2.321-4.14,4.137c-1.062,1.805-1.595,3.788-1.595,5.938s0.533,4.137,1.595,5.945&#10;&#9;&#9;&#9;&#9;&#9;&#9;&#9;c1.064,1.809,2.445,3.189,4.147,4.144c1.701,0.951,3.485,1.424,5.348,1.424c1.879,0,3.663-0.473,5.357-1.424&#10;&#9;&#9;&#9;&#9;&#9;&#9;&#9;c1.698-0.954,3.072-2.335,4.147-4.144c1.071-1.809,1.609-3.795,1.609-5.945s-0.538-4.134-1.609-5.938&#10;&#9;&#9;&#9;&#9;&#9;&#9;&#9;c-1.075-1.815-2.449-3.197-4.147-4.137C1430.834,536.241,1429.05,535.768,1427.171,535.768z M1420.897,554.918v-15.173h2.987&#10;&#9;&#9;&#9;&#9;&#9;&#9;&#9;c2.973,0,4.731,0.032,5.269,0.092c1.072,0.146,1.943,0.584,2.613,1.311c0.676,0.733,1.015,1.68,1.015,2.848&#10;&#9;&#9;&#9;&#9;&#9;&#9;&#9;c0,1.153-0.356,2.115-1.075,2.877c-0.716,0.758-1.666,1.221-2.866,1.396c0.591,0.242,1.071,0.584,1.467,1.04&#10;&#9;&#9;&#9;&#9;&#9;&#9;&#9;c0.389,0.456,0.943,1.303,1.663,2.542l1.716,3.069h-3.674l-1.232-2.464c-0.825-1.652-1.502-2.702-2.047-3.126&#10;&#9;&#9;&#9;&#9;&#9;&#9;&#9;c-0.541-0.431-1.235-0.647-2.071-0.647h-0.773v6.237H1420.897z M1423.888,546.273h1.186c1.627,0,2.617-0.05,2.98-0.142&#10;&#9;&#9;&#9;&#9;&#9;&#9;&#9;c0.487-0.114,0.872-0.342,1.139-0.694c0.281-0.346,0.42-0.759,0.42-1.243c0-0.484-0.146-0.89-0.427-1.221&#10;&#9;&#9;&#9;&#9;&#9;&#9;&#9;c-0.288-0.324-0.666-0.552-1.153-0.673c-0.381-0.1-1.367-0.153-2.959-0.153h-1.186V546.273z" fill="#FFFFFF"/>
					</g>
				</g>
			</g>
		</g>
		<path d="M457.164,568.332c0-8.9,0.726-15.437,2.196-19.62c1.475-4.183,3.072-7.245,4.803-9.21&#10;&#9;&#9;&#9;c3.781-4.265,9.299-6.422,16.551-6.465c10.136,0.043,16.68,4.511,19.609,13.407c1.691,5.113,2.535,11.913,2.535,20.411v13.019&#10;&#9;&#9;&#9;h-13.547v-13.087c0-7.512-0.405-12.588-1.231-15.237c-0.819-2.648-1.815-4.4-2.969-5.269c-1.157-0.876-2.617-1.307-4.397-1.307&#10;&#9;&#9;&#9;c-3.695,0-6.24,1.751-7.644,5.24c-1.402,3.492-2.101,8.993-2.101,16.508v50.842c0,8.896,0.631,15.112,1.901,18.645&#10;&#9;&#9;&#9;c1.274,3.539,3.717,5.304,7.338,5.304c3.624,0,6.052-1.773,7.276-5.336c1.222-3.563,1.826-9.78,1.826-18.68v-13.009h13.682v12.873&#10;&#9;&#9;&#9;c0,12.325-1.677,21.382-5.037,27.185c-3.361,5.81-9.214,8.708-17.576,8.708c-8.363,0-14.322-2.991-17.883-8.972&#10;&#9;&#9;&#9;c-3.561-5.988-5.333-14.995-5.333-27.054V568.332z M518.405,566.332c0-13.351,2.406-22.507,7.206-27.491&#10;&#9;&#9;&#9;c3.78-3.917,9.273-5.871,16.483-5.871c10.491,0,17.202,4.312,20.15,12.941c1.729,5.112,2.595,11.923,2.595,20.421v51.771&#10;&#9;&#9;&#9;c0,12.225-1.712,21.133-5.137,26.715c-3.422,5.582-9.421,8.373-17.982,8.373c-8.559,0-14.586-2.802-18.075-8.409&#10;&#9;&#9;&#9;c-3.496-5.604-5.24-14.5-5.24-26.679V566.332z M551.026,565.527c0-7.512-0.594-12.837-1.798-15.981&#10;&#9;&#9;&#9;c-1.199-3.133-3.624-4.703-7.27-4.703s-6.188,1.602-7.608,4.806c-1.42,3.201-2.136,8.474-2.136,15.814v52.775&#10;&#9;&#9;&#9;c0,8.936,0.627,15.013,1.869,18.242c1.246,3.226,3.76,4.831,7.54,4.831c3.774,0,6.295-1.627,7.537-4.899&#10;&#9;&#9;&#9;c1.25-3.272,1.865-9.331,1.865-18.174V565.527z M582.716,534.433h13.813v106.014h21.682v11.407h-35.494V534.433z M630.222,534.433&#10;&#9;&#9;&#9;h13.81v106.014h21.685v11.407h-35.494V534.433z M677.725,534.433h35.096v11.478h-21.286v40.166h20.146v11.471h-20.146v42.835&#10;&#9;&#9;&#9;h21.55v11.471h-35.359V534.433z M727.826,567.659c0-17.259,4.095-27.979,12.282-32.151c3.197-1.609,6.707-2.428,10.538-2.471&#10;&#9;&#9;&#9;c7.159,0,12.343,1.521,15.54,4.568c3.204,3.047,5.27,7.081,6.205,12.08c0.937,5.002,1.406,11.086,1.406,18.242v9.078h-13.351&#10;&#9;&#9;&#9;v-15.287c0-5.995-0.608-10.292-1.826-12.874c-1.225-2.578-3.624-3.87-7.206-3.87c-3.584,0-6.105,1.627-7.575,4.877&#10;&#9;&#9;&#9;c-1.464,3.243-2.2,8.976-2.2,17.206v49.368c0,9.389,0.647,15.918,1.933,19.584c1.293,3.674,3.835,5.504,7.644,5.504&#10;&#9;&#9;&#9;c3.792,0,6.398-1.887,7.801-5.675c1.406-3.774,2.101-10.338,2.101-19.68v-15.273h-9.542v-10.673h22.223v61.64h-7.276l-1.862-9.064&#10;&#9;&#9;&#9;c-2.627,6.8-7.644,10.203-15.053,10.203c-7.4,0-12.884-2.884-16.443-8.644c-3.557-5.76-5.337-14.91-5.337-27.452V567.659z&#10;&#9;&#9;&#9; M793.076,534.433h13.81v117.42h-13.81V534.433z M839.778,534.433h16.611l19.41,117.42h-13.006l-3.339-22.415H838.18&#10;&#9;&#9;&#9;l-3.073,22.415h-13.144L839.778,534.433z M839.707,618.238h18.021l-9.277-62.053h-0.199L839.707,618.238z M880.274,534.433h38.763&#10;&#9;&#9;&#9;v11.478h-12.076v105.942h-13.742V545.911h-12.944V534.433z M930.511,534.433h35.096v11.478h-21.285v40.166h20.15v11.471h-20.15&#10;&#9;&#9;&#9;v42.835h21.553v11.471h-35.363V534.433z M1014.171,567.659c0-17.259,4.094-27.979,12.282-32.151&#10;&#9;&#9;&#9;c3.2-1.609,6.711-2.428,10.538-2.471c7.159,0,12.343,1.521,15.547,4.568c3.201,3.047,5.27,7.081,6.202,12.08&#10;&#9;&#9;&#9;c0.933,5.002,1.399,11.086,1.399,18.242v9.078h-13.34v-15.287c0-5.995-0.616-10.292-1.838-12.874&#10;&#9;&#9;&#9;c-1.225-2.578-3.624-3.87-7.205-3.87c-3.578,0-6.105,1.627-7.569,4.877c-1.47,3.243-2.203,8.976-2.203,17.206v49.368&#10;&#9;&#9;&#9;c0,9.389,0.644,15.918,1.937,19.584c1.285,3.674,3.834,5.504,7.633,5.504c3.81,0,6.408-1.887,7.808-5.675&#10;&#9;&#9;&#9;c1.402-3.774,2.104-10.338,2.104-19.68v-15.273h-9.541v-10.673h22.216v61.64h-7.271l-1.869-9.064&#10;&#9;&#9;&#9;c-2.627,6.8-7.64,10.203-15.041,10.203c-7.405,0-12.892-2.884-16.448-8.644c-3.56-5.76-5.34-14.91-5.34-27.452V567.659z&#10;&#9;&#9;&#9; M1078.356,534.433h24.614c6.985,0,12.009,1.453,15.081,4.344c3.068,2.891,4.916,7.804,5.536,14.739&#10;&#9;&#9;&#9;c0.263,2.848,0.402,7.284,0.402,13.315c0,6.02-0.79,11.079-2.371,15.177c-1.581,4.091-4.372,6.732-8.374,7.936&#10;&#9;&#9;&#9;c2.938,0.491,5.162,2.033,6.672,4.635c1.514,2.602,2.581,6.743,3.201,12.414c0.626,5.665,0.939,14.102,0.939,25.284&#10;&#9;&#9;&#9;c0,11.186,0.353,17.711,1.068,19.577h-13.742c-0.716-1.417-1.068-14.604-1.068-39.557c0-8.409-0.826-13.287-2.471-14.643&#10;&#9;&#9;&#9;c-1.648-1.356-4.141-2.036-7.473-2.036l-8.206-0.463v56.699h-13.81V534.433z M1110.315,563.195c0-9.032-0.815-14.259-2.438-15.683&#10;&#9;&#9;&#9;c-1.624-1.424-3.97-2.136-7.042-2.136h-8.669v39.631h8.804c2.667,0,4.629-0.513,5.875-1.538c1.246-1.018,2.129-2.983,2.666-5.867&#10;&#9;&#9;&#9;c0.538-2.887,0.805-7.434,0.805-13.611V563.195z M1154.547,534.433h16.611l19.413,117.42h-13.009l-3.339-22.415h-21.283&#10;&#9;&#9;&#9;l-3.068,22.415h-13.141L1154.547,534.433z M1154.479,618.238h18.014l-9.274-62.053h-0.199L1154.479,618.238z M1204.577,534.433&#10;&#9;&#9;&#9;h23.629c10.402,0,16.936,4.322,19.608,12.945c1.691,5.425,2.538,11.763,2.538,19.022c0,7.245-0.199,12.691-0.602,16.344&#10;&#9;&#9;&#9;c-0.893,7.996-3.004,13.842-6.34,17.509s-8.409,5.504-15.205,5.504h-9.809v46.097h-13.82V534.433z M1236.536,567.592&#10;&#9;&#9;&#9;c0-8.046-0.63-13.764-1.897-17.146s-3.773-5.069-7.505-5.069h-8.736v48.905h8.402c3.916,0,6.518-1.713,7.803-5.145&#10;&#9;&#9;&#9;c1.293-3.418,1.934-9.847,1.934-19.282V567.592z M1296.585,534.433h13.81v117.42h-13.81v-56.905h-18.818v56.905h-13.811v-117.42&#10;&#9;&#9;&#9;h13.811v49.237h18.818V534.433z M1330.677,534.433h13.81v117.42h-13.81V534.433z M1392.989,534.433h12.407l-16.276,60.245&#10;&#9;&#9;&#9;l16.811,57.176h-12.008l-11.944-40.564l-10.538,40.564h-12.613l16.817-62.174l-16.28-55.246h12.076l11.471,39.098&#10;&#9;&#9;&#9;L1392.989,534.433z" fill="#FFFFFF" id="text_10_"/>
		<path d="M483.815,684.578h1.829l-7.323,25.092h-1.68l-6.181-21.254h-0.143l-6.184,21.254h-1.681&#10;&#9;&#9;&#9;l-7.313-25.092h2.118l6.109,21.179h0.143l6.109-21.179h1.829l6.109,21.179h0.146L483.815,684.578z M518.01,709.669v-11.926&#10;&#9;&#9;&#9;h-13.563v11.926h-1.977v-25.092h1.977v11.414h13.563v-11.414h1.979v25.092H518.01z M538.787,709.669v-25.092h15.504l-0.362,1.759&#10;&#9;&#9;&#9;h-13.17v9.655h11.667v1.752h-11.667v10.171h13.497l0.405,1.755H538.787z M589.661,709.727c-0.175,0.035-0.363,0.05-0.58,0.05&#10;&#9;&#9;&#9;c-0.762,0-1.421-0.335-1.997-1.004c-0.573-0.669-0.865-1.923-0.865-3.752c0-2.923-0.509-4.871-1.531-5.832&#10;&#9;&#9;&#9;c-1.028-0.965-2.083-1.445-3.183-1.445h-8.085v11.926h-1.976v-25.092h10.21c1.192,0,2.317,0.263,3.382,0.787&#10;&#9;&#9;&#9;c1.058,0.523,1.916,1.253,2.574,2.197c0.662,0.94,0.993,2.015,0.993,3.232c0,0.879-0.199,1.748-0.587,2.599&#10;&#9;&#9;&#9;c-0.392,0.851-0.933,1.588-1.631,2.193c-0.694,0.612-1.452,0.99-2.278,1.139v0.178c0-0.121,0.37,0.025,1.11,0.434&#10;&#9;&#9;&#9;c0.744,0.42,1.414,1.154,2.012,2.222c0.595,1.061,0.894,2.563,0.894,4.514c0,1.389,0.086,2.407,0.26,3.051&#10;&#9;&#9;&#9;c0.164,0.645,0.349,1.05,0.534,1.207c0.182,0.164,0.534,0.359,1.075,0.605v0.691C589.942,709.655,589.836,709.684,589.661,709.727&#10;&#9;&#9;&#9;z M584.211,695.329c0.755-0.438,1.353-1.029,1.79-1.773c0.441-0.74,0.659-1.556,0.659-2.435c0-0.876-0.218-1.677-0.659-2.414&#10;&#9;&#9;&#9;c-0.438-0.727-1.025-1.31-1.77-1.734c-0.747-0.427-1.569-0.637-2.467-0.637h-8.345v9.655h8.345&#10;&#9;&#9;&#9;C582.637,695.991,583.456,695.771,584.211,695.329z M606.924,709.669v-25.092h15.509l-0.367,1.759H608.9v9.655h11.67v1.752H608.9&#10;&#9;&#9;&#9;v10.171h13.496l0.402,1.755H606.924z M674.517,707.843c-1.73,1.457-3.966,2.193-6.689,2.193c-1.958,0-3.62-0.353-4.998-1.064&#10;&#9;&#9;&#9;c-1.378-0.705-2.46-1.973-3.258-3.802c-0.79-1.83-1.189-4.351-1.189-7.576v-0.947c0-3.218,0.399-5.743,1.189-7.569&#10;&#9;&#9;&#9;c0.798-1.83,1.88-3.097,3.258-3.806c1.378-0.705,3.04-1.058,4.998-1.058c2.752,0,4.988,0.716,6.707,2.158&#10;&#9;&#9;&#9;c1.72,1.435,2.574,3.913,2.574,7.419h-1.937c0-2.901-0.669-4.927-2.008-6.088c-1.346-1.157-3.122-1.737-5.337-1.737&#10;&#9;&#9;&#9;c-2.396,0-4.236,0.741-5.525,2.215c-1.296,1.474-1.94,4.151-1.94,8.031v1.83c0,3.866,0.645,6.551,1.94,8.024&#10;&#9;&#9;&#9;c1.289,1.474,3.13,2.214,5.525,2.214c4.892,0,7.345-2.595,7.345-7.793h1.937C677.108,703.927,676.247,706.38,674.517,707.843z&#10;&#9;&#9;&#9; M696.151,707.306c-1.719-1.813-2.584-5.056-2.584-9.712v-0.947c0-4.657,0.865-7.893,2.584-9.712&#10;&#9;&#9;&#9;c1.717-1.816,4.102-2.72,7.149-2.72c3.044,0,5.429,0.904,7.151,2.72c1.717,1.819,2.578,5.055,2.578,9.712v0.947&#10;&#9;&#9;&#9;c0,4.657-0.861,7.9-2.578,9.712c-1.723,1.823-4.107,2.73-7.151,2.73C700.253,710.036,697.868,709.128,696.151,707.306z&#10;&#9;&#9;&#9; M708.985,706.049c1.382-1.488,2.065-4.162,2.065-8.007v-1.83c0-3.855-0.684-6.529-2.065-8.01&#10;&#9;&#9;&#9;c-1.373-1.488-3.271-2.236-5.685-2.236c-2.411,0-4.308,0.748-5.689,2.236c-1.374,1.481-2.065,4.155-2.065,8.01v1.83&#10;&#9;&#9;&#9;c0,3.845,0.691,6.519,2.065,8.007c1.382,1.488,3.278,2.232,5.689,2.232C705.714,708.281,707.612,707.537,708.985,706.049z&#10;&#9;&#9;&#9; M730.92,709.669v-25.092h1.969v23.336h12.436l0.438,1.755H730.92z M761.491,709.669v-25.092h1.972v23.336h12.439l0.438,1.755&#10;&#9;&#9;&#9;H761.491z M792.072,709.669v-25.092h15.501l-0.363,1.759h-13.169v9.655h11.67v1.752h-11.67v10.171h13.496l0.402,1.755H792.072z&#10;&#9;&#9;&#9; M832.042,698.583v-1.716h10.313v8.444c0,1.075,0.032,2.015,0.097,2.82c0.057,0.805,0.103,1.317,0.128,1.538h-1.354&#10;&#9;&#9;&#9;c-0.05-0.149-0.132-0.505-0.241-1.083c-0.107-0.569-0.225-1.331-0.35-2.285c-0.727,1.296-1.759,2.239-3.086,2.837&#10;&#9;&#9;&#9;c-1.328,0.595-2.827,0.897-4.479,0.897c-1.954,0-3.616-0.353-4.998-1.064c-1.374-0.705-2.46-1.973-3.247-3.802&#10;&#9;&#9;&#9;c-0.797-1.83-1.196-4.351-1.196-7.576v-0.947c0-3.218,0.399-5.743,1.196-7.569c0.787-1.83,1.873-3.097,3.247-3.806&#10;&#9;&#9;&#9;c1.382-0.705,3.044-1.058,4.998-1.058c2.728,0,4.96,0.68,6.689,2.043c1.73,1.367,2.596,3.695,2.596,6.985h-1.937&#10;&#9;&#9;&#9;c0-2.681-0.68-4.564-2.044-5.646c-1.37-1.086-3.136-1.631-5.305-1.631c-2.392,0-4.232,0.741-5.524,2.215&#10;&#9;&#9;&#9;c-1.297,1.474-1.938,4.151-1.938,8.031v1.83c0,3.866,0.641,6.551,1.938,8.024c1.292,1.474,3.133,2.214,5.524,2.214&#10;&#9;&#9;&#9;c4.974,0,7.459-2.595,7.459-7.793v-1.905H832.042z M860.462,709.669v-25.092h15.508l-0.366,1.759h-13.165v9.655h11.666v1.752&#10;&#9;&#9;&#9;h-11.666v10.171h13.496l0.402,1.755H860.462z M937.055,709.669v-22.863h-0.188l-10.058,22.863h-1.862l-9.985-22.863h-0.186v22.863&#10;&#9;&#9;&#9;h-1.751v-25.092h3.14l9.805,22.564h0.035l9.915-22.564h3.104v25.092H937.055z M958.298,709.669v-25.092h15.512l-0.37,1.759&#10;&#9;&#9;&#9;h-13.162v9.655h11.667v1.752h-11.667v10.171h13.493l0.402,1.755H958.298z M990.962,709.669v-25.092h15.508l-0.37,1.759h-13.161&#10;&#9;&#9;&#9;v9.655h11.67v1.752h-11.67v10.171h13.496l0.398,1.755H990.962z M1031.562,686.336v23.333h-1.904v-23.333h-8.483v-1.759h18.868&#10;&#9;&#9;&#9;v1.759H1031.562z M1069.673,690.466c0-1.467-0.608-2.577-1.809-3.346c-1.207-0.766-2.748-1.154-4.631-1.154&#10;&#9;&#9;&#9;c-1.927,0-3.476,0.36-4.643,1.083c-1.172,0.715-1.752,1.858-1.752,3.417c0,1.025,0.303,1.848,0.911,2.471&#10;&#9;&#9;&#9;c0.605,0.62,1.364,1.104,2.265,1.46c0.904,0.356,2.118,0.726,3.656,1.114c1.854,0.488,3.354,0.958,4.482,1.41&#10;&#9;&#9;&#9;c1.135,0.452,2.097,1.15,2.891,2.09c0.794,0.937,1.186,2.197,1.186,3.781c0,2.51-0.822,4.344-2.467,5.504&#10;&#9;&#9;&#9;c-1.646,1.161-3.785,1.741-6.416,1.741c-2.734,0-4.927-0.566-6.59-1.705c-1.659-1.132-2.484-2.966-2.484-5.504l0.035-0.659h1.869&#10;&#9;&#9;&#9;l-0.035,0.986c0,1.78,0.644,3.08,1.939,3.895c1.293,0.826,2.994,1.231,5.116,1.231c4.731,0,7.099-1.794,7.099-5.383&#10;&#9;&#9;&#9;c0-1.139-0.327-2.065-0.972-2.777c-0.647-0.708-1.438-1.239-2.374-1.609c-0.937-0.366-2.229-0.769-3.859-1.207&#10;&#9;&#9;&#9;c-1.806-0.484-3.247-0.951-4.318-1.385c-1.072-0.448-1.987-1.11-2.745-1.997c-0.755-0.894-1.132-2.075-1.132-3.563&#10;&#9;&#9;&#9;c0-2.051,0.786-3.589,2.356-4.607c1.573-1.033,3.56-1.538,5.945-1.538c2.464,0,4.461,0.534,5.999,1.609&#10;&#9;&#9;&#9;c1.534,1.068,2.303,2.727,2.303,4.97v0.477h-1.826V690.466z M1124.566,707.843c-1.723,1.457-3.955,2.193-6.689,2.193&#10;&#9;&#9;&#9;c-1.947,0-3.609-0.353-4.998-1.064c-1.37-0.705-2.456-1.973-3.247-3.802c-0.797-1.83-1.189-4.351-1.189-7.576v-0.947&#10;&#9;&#9;&#9;c0-3.218,0.393-5.743,1.189-7.569c0.791-1.83,1.877-3.097,3.247-3.806c1.389-0.705,3.051-1.058,4.998-1.058&#10;&#9;&#9;&#9;c2.752,0,4.995,0.716,6.711,2.158c1.724,1.435,2.581,3.913,2.581,7.419h-1.939c0-2.901-0.677-4.927-2.012-6.088&#10;&#9;&#9;&#9;c-1.343-1.157-3.119-1.737-5.341-1.737c-2.389,0-4.229,0.741-5.524,2.215c-1.286,1.474-1.941,4.151-1.941,8.031v1.83&#10;&#9;&#9;&#9;c0,3.866,0.655,6.551,1.941,8.024c1.295,1.474,3.136,2.214,5.524,2.214c4.902,0,7.353-2.595,7.353-7.793h1.939&#10;&#9;&#9;&#9;C1127.169,703.927,1126.301,706.38,1124.566,707.843z M1162.97,709.727c-0.164,0.035-0.363,0.05-0.58,0.05&#10;&#9;&#9;&#9;c-0.755,0-1.421-0.335-1.994-1.004c-0.576-0.669-0.861-1.923-0.861-3.752c0-2.923-0.509-4.871-1.538-5.832&#10;&#9;&#9;&#9;c-1.019-0.965-2.083-1.445-3.179-1.445h-8.078v11.926h-1.979v-25.092h10.203c1.192,0,2.321,0.263,3.39,0.787&#10;&#9;&#9;&#9;c1.054,0.523,1.919,1.253,2.57,2.197c0.662,0.94,0.993,2.015,0.993,3.232c0,0.879-0.192,1.748-0.591,2.599&#10;&#9;&#9;&#9;c-0.385,0.851-0.93,1.588-1.623,2.193c-0.691,0.612-1.46,0.99-2.286,1.139v0.178c0-0.121,0.374,0.025,1.114,0.434&#10;&#9;&#9;&#9;c0.744,0.42,1.413,1.154,2.012,2.222c0.595,1.061,0.894,2.563,0.894,4.514c0,1.389,0.085,2.407,0.256,3.051&#10;&#9;&#9;&#9;c0.175,0.645,0.349,1.05,0.538,1.207c0.178,0.164,0.534,0.359,1.075,0.605v0.691&#10;&#9;&#9;&#9;C1163.251,709.655,1163.147,709.684,1162.97,709.727z M1157.526,695.329c0.755-0.438,1.35-1.029,1.791-1.773&#10;&#9;&#9;&#9;c0.438-0.74,0.658-1.556,0.658-2.435c0-0.876-0.221-1.677-0.658-2.414c-0.441-0.727-1.029-1.31-1.777-1.734&#10;&#9;&#9;&#9;c-0.736-0.427-1.566-0.637-2.467-0.637h-8.334v9.655h8.334C1155.953,695.991,1156.771,695.771,1157.526,695.329z M1180.24,709.669&#10;&#9;&#9;&#9;v-25.092h15.508l-0.367,1.759h-13.169v9.655h11.67v1.752h-11.67v10.171h13.5l0.396,1.755H1180.24z M1227.529,703.446h-13.24&#10;&#9;&#9;&#9;l-2.563,6.223h-2.043l10.389-25.092h1.822l10.389,25.092h-2.154L1227.529,703.446z M1215.022,701.659h11.777l-5.817-14.376h-0.149&#10;&#9;&#9;&#9;L1215.022,701.659z M1253.643,686.336v23.333h-1.904v-23.333h-8.48v-1.759h18.872v1.759H1253.643z M1276.396,684.578h7.754v1.794&#10;&#9;&#9;&#9;h-2.891v21.503h2.891v1.794h-7.754v-1.794h2.887v-21.503h-2.887V684.578z M1317.722,684.578h1.943l-9.48,25.092h-1.752&#10;&#9;&#9;&#9;l-9.509-25.092h2.154l8.23,21.941h0.182L1317.722,684.578z M1333.706,684.578h7.754v1.794h-2.891v21.503h2.891v1.794h-7.754&#10;&#9;&#9;&#9;v-1.794h2.888v-21.503h-2.888V684.578z M1367.354,686.336v23.333h-1.897v-23.333h-8.488v-1.759h18.873v1.759H1367.354z&#10;&#9;&#9;&#9; M1398.96,699.936v9.733h-1.979v-9.733l-8.996-15.358h2.304l7.714,13.351h0.114l7.825-13.351h2.012L1398.96,699.936z" fill="#FFFFFF" id="text_9_"/>
		<g>
			<g>
				<path d="M928.97,260.332l-1.499-2.77h-0.028c-0.498,0.278-9.74,5.212-23.781,11.378&#10;&#9;&#9;&#9;&#9;&#9;c-14.049,6.173-32.906,13.571-52.591,18.769l-2.346,0.623v2.424c0,24.102,0,28.459,0,29.25c0,0.171,0,0.171,0,0.171&#10;&#9;&#9;&#9;&#9;&#9;c0,2.862,0,41.404,0,65.35c0,6.522,0.961,13.258,3.442,20.058c1.862,5.091,4.575,10.21,8.338,15.272&#10;&#9;&#9;&#9;&#9;&#9;c5.643,7.612,13.61,15.116,24.601,22.429c10.973,7.313,24.971,14.469,42.714,21.379l1.15,0.445l1.14-0.445&#10;&#9;&#9;&#9;&#9;&#9;c15.778-6.152,28.577-12.479,38.951-18.943c7.771-4.859,14.165-9.791,19.406-14.789c7.843-7.487,13.065-15.145,16.298-22.806&#10;&#9;&#9;&#9;&#9;&#9;c3.223-7.647,4.439-15.273,4.439-22.6c0-23.945,0-62.487,0-65.35c0-0.107,0-0.171,0-0.171c0-0.791,0-5.148,0-29.25v-2.424&#10;&#9;&#9;&#9;&#9;&#9;l-2.354-0.623c-19.993-5.283-39.129-12.831-53.252-19.054c-7.045-3.119-12.855-5.903-16.875-7.904&#10;&#9;&#9;&#9;&#9;&#9;c-2.019-0.997-3.592-1.801-4.653-2.353c-0.534-0.281-0.937-0.491-1.21-0.638c-0.136-0.063-0.238-0.121-0.307-0.153l-0.078-0.046&#10;&#9;&#9;&#9;&#9;&#9;h-0.011l-1.495-0.815l-1.499,0.815L928.97,260.332l-1.499,2.77c0.058,0.032,9.278,5.013,23.593,11.321&#10;&#9;&#9;&#9;&#9;&#9;c14.315,6.316,33.715,13.977,54.179,19.389l0.805-3.055h-3.147c0,24.102,0,28.459,0,29.25c0,0,0,0.064,0,0.171&#10;&#9;&#9;&#9;&#9;&#9;c0,2.862,0,41.404,0,65.35c0,5.91-0.857,11.87-3.065,17.89c-1.645,4.521-4.059,9.075-7.473,13.689&#10;&#9;&#9;&#9;&#9;&#9;c-5.126,6.914-12.524,13.934-23.023,20.934c-10.502,7.006-24.099,13.966-41.519,20.741l1.15,2.937l1.14-2.937&#10;&#9;&#9;&#9;&#9;&#9;c-15.487-6.027-27.947-12.204-37.895-18.41c-7.469-4.653-13.518-9.345-18.392-14.002c-7.309-6.978-11.977-13.892-14.835-20.691&#10;&#9;&#9;&#9;&#9;&#9;c-2.869-6.792-3.955-13.493-3.955-20.15c0-23.945,0-62.487,0-65.35c0,0,0,0,0-0.171c0-0.791,0-5.148,0-29.25h-3.158l0.815,3.055&#10;&#9;&#9;&#9;&#9;&#9;c20.46-5.412,39.859-13.073,54.168-19.389c14.329-6.308,23.55-11.289,23.606-11.321L928.97,260.332l-1.499,2.77L928.97,260.332z" fill="#A61D31"/>
				<path d="M928.97,451.546c-60.536-24.373-67.628-49.29-67.628-66.019V297.94&#10;&#9;&#9;&#9;&#9;&#9;c30.403-8.829,57.269-21.713,67.628-26.957c10.356,5.244,37.207,18.128,67.621,26.957v87.586&#10;&#9;&#9;&#9;&#9;&#9;C996.591,402.256,989.492,427.173,928.97,451.546z" fill="#A61D31"/>
				<path d="M881.563,310.437h-1.912c0,0.904-0.355,1.709-0.947,2.3c-0.591,0.591-1.396,0.947-2.3,0.961&#10;&#9;&#9;&#9;&#9;&#9;c-0.904-0.014-1.709-0.37-2.3-0.961c-0.595-0.591-0.954-1.396-0.954-2.3s0.359-1.709,0.954-2.3&#10;&#9;&#9;&#9;&#9;&#9;c0.591-0.584,1.396-0.947,2.3-0.947s1.709,0.363,2.3,0.947c0.592,0.591,0.947,1.396,0.947,2.3H881.563h1.911&#10;&#9;&#9;&#9;&#9;&#9;c0-1.943-0.797-3.717-2.064-5.002c-1.285-1.271-3.059-2.068-5.006-2.064c-1.954-0.004-3.728,0.794-5.002,2.064&#10;&#9;&#9;&#9;&#9;&#9;c-1.274,1.285-2.071,3.059-2.071,5.002c0,1.955,0.797,3.731,2.071,5.013c1.274,1.268,3.048,2.055,5.002,2.055&#10;&#9;&#9;&#9;&#9;&#9;c1.947,0,3.731-0.787,5.006-2.055c1.268-1.281,2.064-3.058,2.064-5.013H881.563z" fill="#FDFEFF"/>
				<path d="M935.876,375.416h-1.904c0,1.374-0.555,2.603-1.456,3.493c-0.9,0.908-2.122,1.453-3.503,1.453&#10;&#9;&#9;&#9;&#9;&#9;c-1.371,0-2.592-0.545-3.492-1.453c-0.897-0.89-1.453-2.119-1.453-3.493s0.556-2.606,1.453-3.503&#10;&#9;&#9;&#9;&#9;&#9;c0.9-0.897,2.121-1.453,3.492-1.453c1.381,0,2.603,0.555,3.503,1.453c0.901,0.897,1.456,2.129,1.456,3.503H935.876h1.908&#10;&#9;&#9;&#9;&#9;&#9;c0-2.414-0.979-4.621-2.563-6.209c-1.574-1.584-3.785-2.566-6.209-2.566c-2.414,0-4.61,0.982-6.191,2.566&#10;&#9;&#9;&#9;&#9;&#9;c-1.588,1.588-2.57,3.795-2.57,6.209c0,2.414,0.982,4.621,2.57,6.195c1.581,1.587,3.777,2.57,6.191,2.57&#10;&#9;&#9;&#9;&#9;&#9;c2.424,0,4.635-0.983,6.209-2.57c1.584-1.574,2.563-3.781,2.563-6.195H935.876z" fill="#FDFEFF"/>
				<path d="M986.804,310.437h-1.915c0,0.904-0.363,1.709-0.954,2.3c-0.595,0.591-1.396,0.947-2.304,0.961&#10;&#9;&#9;&#9;&#9;&#9;c-0.896-0.014-1.698-0.37-2.292-0.961c-0.588-0.591-0.955-1.396-0.955-2.3s0.367-1.709,0.955-2.3&#10;&#9;&#9;&#9;&#9;&#9;c0.594-0.584,1.396-0.947,2.292-0.947c0.908,0,1.709,0.363,2.304,0.947c0.591,0.591,0.954,1.396,0.954,2.3H986.804h1.908&#10;&#9;&#9;&#9;&#9;&#9;c0-1.943-0.797-3.717-2.064-5.002c-1.289-1.271-3.062-2.068-5.017-2.064c-1.943-0.004-3.717,0.794-4.991,2.064&#10;&#9;&#9;&#9;&#9;&#9;c-1.281,1.285-2.072,3.059-2.072,5.002c0,1.955,0.791,3.731,2.072,5.013c1.274,1.268,3.048,2.055,4.991,2.055&#10;&#9;&#9;&#9;&#9;&#9;c1.955,0,3.728-0.787,5.017-2.055c1.268-1.281,2.064-3.058,2.064-5.013H986.804z" fill="#FDFEFF"/>
				<polyline points="881.563,312.267 976.476,312.267 976.476,308.607 881.563,308.607" fill="#FDFEFF"/>
				<polygon points="932.775,324.57 932.775,322.74 929.013,322.74 924.089,322.74 900.029,375.245 910.6,401.654 &#10;&#9;&#9;&#9;&#9;&#9;910.6,410.028 929.013,410.028 929.034,410.028 947.439,410.028 947.439,401.654 957.995,375.245 933.946,322.74 &#10;&#9;&#9;&#9;&#9;&#9;932.775,322.74 932.775,324.57 931.099,325.332 954.022,375.349 943.783,400.949 943.783,406.361 929.034,406.361 &#10;&#9;&#9;&#9;&#9;&#9;929.013,406.361 914.252,406.361 914.252,400.949 904.021,375.349 926.442,326.4 929.013,326.4 932.775,326.4 932.775,324.57 &#10;&#9;&#9;&#9;&#9;&#9;931.099,325.332" fill="#FDFEFF"/>
				<polyline points="930.853,368.552 930.853,324.57 927.187,324.57 927.187,368.552" fill="#FDFEFF"/>
				<path d="M909.019,406.361v14.607h39.803v-1.819v-12.788H909.019z M912.679,410.028h32.476v7.277h-32.476V410.028&#10;&#9;&#9;&#9;&#9;&#9;z" fill="#FDFEFF"/>
				<path d="M880.467,360.207c0-13.386,5.415-25.483,14.187-34.263c8.77-8.775,20.873-14.19,34.256-14.19&#10;&#9;&#9;&#9;&#9;&#9;c13.39,0,25.494,5.415,34.267,14.19c8.775,8.779,14.194,20.877,14.194,34.263h3.659c0-14.39-5.831-27.42-15.262-36.847&#10;&#9;&#9;&#9;&#9;&#9;c-9.428-9.427-22.461-15.266-36.858-15.266c-14.376,0-27.416,5.838-36.844,15.266c-9.42,9.427-15.27,22.458-15.262,36.847&#10;&#9;&#9;&#9;&#9;&#9;H880.467z" fill="#FDFEFF"/>
				<rect height="14.255" width="14.411" fill="#A61D31" y="353.236" x="871.136"/>
				<polygon points="885.547,367.491 885.547,365.658 872.958,365.658 872.958,355.066 883.706,355.066 &#10;&#9;&#9;&#9;&#9;&#9;883.706,367.491 885.547,367.491 885.547,365.658 885.547,367.491 887.37,367.491 887.37,351.414 869.302,351.414 &#10;&#9;&#9;&#9;&#9;&#9;869.302,369.314 887.37,369.314 887.37,367.491" fill="#FDFEFF"/>
				<rect height="14.255" width="14.408" fill="#A61D31" y="353.236" x="971.848"/>
				<polygon points="986.256,367.491 986.256,365.658 973.682,365.658 973.682,355.066 984.433,355.066 &#10;&#9;&#9;&#9;&#9;&#9;984.433,367.491 986.256,367.491 986.256,365.658 986.256,367.491 988.093,367.491 988.093,351.414 970.021,351.414 &#10;&#9;&#9;&#9;&#9;&#9;970.021,369.314 988.093,369.314 988.093,367.491" fill="#FDFEFF"/>
				<rect height="14.251" width="14.407" fill="#A61D31" y="303.398" x="921.832"/>
				<polygon points="936.239,317.649 936.239,315.819 923.661,315.819 923.661,305.232 934.417,305.232 &#10;&#9;&#9;&#9;&#9;&#9;934.417,317.649 936.239,317.649 936.239,315.819 936.239,317.649 938.077,317.649 938.077,301.572 920.002,301.572 &#10;&#9;&#9;&#9;&#9;&#9;920.002,319.479 938.077,319.479 938.077,317.649" fill="#FDFEFF"/>
			</g>
			<path d="M1100.468,378.25c-2.268,1.609-4.682,3.731-6.803,6.365c-3.301,3.881-6.003,8.417-8.203,13.319&#10;&#9;&#9;&#9;&#9;c1.46-6.22,2.489-12.436,3.084-18.808c0.139-1.752,0.284-3.511,0.359-5.269c4.535-0.947,9.007-4.023,12.445-9.801&#10;&#9;&#9;&#9;&#9;c1.752-3.001,3.212-6.586,3.949-10.392c0.217-0.954,0.359-1.901,0.516-2.927l0.214-1.467l0.075-1.459&#10;&#9;&#9;&#9;&#9;c0.148-1.979,0.148-4.023,0-6.074c-2.265,0.947-4.465,2.485-6.438,4.532c-0.954,1.029-1.912,2.196-2.78,3.439&#10;&#9;&#9;&#9;&#9;c-0.887,1.243-1.763,2.709-2.57,4.169c-0.805,1.545-1.464,3.083-2.126,4.692c-0.65,1.606-1.31,3.293-1.751,4.974&#10;&#9;&#9;&#9;&#9;c-0.288,0.876-0.431,1.681-0.727,2.56c-0.221,0.805-0.441,1.609-0.587,2.414c0.078-4.098,0-8.117-0.296-12.218&#10;&#9;&#9;&#9;&#9;c-0.217-4.027-0.655-8.053-1.31-11.998c1.972-0.883,3.806-2.2,5.489-4.026c1.819-2.047,3.585-4.76,4.6-8.121&#10;&#9;&#9;&#9;&#9;c0.591-1.688,1.029-3.446,1.324-5.269c0.288-1.83,0.36-3.738,0.36-5.714c0-0.947,0-1.976-0.072-2.923&#10;&#9;&#9;&#9;&#9;c-0.07-0.954-0.217-1.979-0.359-3.004c-0.149-1.022-0.291-1.976-0.516-2.998c-0.225-1.018-0.435-1.976-0.737-2.998&#10;&#9;&#9;&#9;&#9;c-1.015,0.655-1.972,1.535-2.849,2.485c-0.879,0.954-1.751,2.051-2.488,3.293c-0.732,1.243-1.459,2.563-2.047,3.956&#10;&#9;&#9;&#9;&#9;c-0.299,0.726-0.595,1.459-0.812,2.189c-0.288,0.812-0.509,1.613-0.801,2.417c-0.509,1.688-0.88,3.368-1.175,5.048&#10;&#9;&#9;&#9;&#9;c-0.292,1.688-0.58,3.439-0.723,5.27c-0.082,0.883-0.15,1.751-0.15,2.634c0,0.805-0.074,1.609-0.074,2.421&#10;&#9;&#9;&#9;&#9;c-0.363-1.759-0.727-3.517-1.097-5.276c-1.392-6.145-3.222-12.147-5.493-18.071c1.766-1.246,3.297-2.927,4.543-5.056&#10;&#9;&#9;&#9;&#9;c0.727-1.239,1.32-2.556,1.826-4.016c0.445-1.463,0.809-3.076,1.025-4.835c0.513-3.506,0.143-7.241-0.58-11.122&#10;&#9;&#9;&#9;&#9;c-0.445-1.901-1.029-3.806-1.688-5.704c-0.359-0.954-0.662-1.908-1.094-2.858c-0.448-0.951-0.886-1.826-1.395-2.709&#10;&#9;&#9;&#9;&#9;c-1.681,1.758-3.002,4.026-3.956,6.735c-1.028,2.706-1.602,5.782-1.751,9.149c-0.371,5.123,0.149,10.385,1.171,15.583&#10;&#9;&#9;&#9;&#9;c-2.78-6.658-6.073-13.094-9.883-19.246c-0.509-0.805-1.025-1.534-1.534-2.339c1.463-1.609,2.631-3.585,3.438-5.928&#10;&#9;&#9;&#9;&#9;c0.876-2.635,1.168-5.714,0.876-9.296c-0.727-6.949-3.951-14.561-9.285-20.855c-1.32,2.122-2.125,4.607-2.492,7.391&#10;&#9;&#9;&#9;&#9;c-0.221,1.388-0.221,2.858-0.221,4.464c0,1.538,0.143,3.226,0.367,4.906c0.146,0.876,0.288,1.68,0.438,2.556&#10;&#9;&#9;&#9;&#9;c0.143,0.804,0.367,1.68,0.513,2.563c0.438,1.681,0.947,3.368,1.538,5.048c0.513,1.613,1.175,3.222,1.83,4.834&#10;&#9;&#9;&#9;&#9;c-2.855-4.03-5.856-7.903-9.074-11.642c-2.055-2.406-4.24-4.756-6.509-7.027c0.502-0.798,0.872-1.681,1.239-2.627&#10;&#9;&#9;&#9;&#9;c0.441-1.175,0.733-2.492,0.879-3.88c0.15-1.389,0.15-2.855,0-4.386c-0.074-0.805-0.221-1.616-0.366-2.417&#10;&#9;&#9;&#9;&#9;c-0.146-0.805-0.37-1.612-0.655-2.485c-0.52-1.688-1.25-3.372-2.058-5.052c-0.805-1.688-1.897-3.218-2.994-4.828&#10;&#9;&#9;&#9;&#9;c-0.587-0.805-1.171-1.616-1.755-2.346c-0.666-0.73-1.324-1.464-2.051-2.197c-0.733-0.726-1.463-1.388-2.2-2.118&#10;&#9;&#9;&#9;&#9;c-0.723-0.733-1.534-1.392-2.332-1.976c-0.448,1.164-0.662,2.414-0.808,3.656c-0.153,1.313-0.221,2.706-0.075,4.104&#10;&#9;&#9;&#9;&#9;c0.075,1.389,0.292,2.923,0.659,4.386c0.146,0.733,0.37,1.531,0.662,2.264c0.224,0.812,0.509,1.616,0.801,2.417&#10;&#9;&#9;&#9;&#9;c0.58,1.609,1.238,3.222,2.051,4.76c0.733,1.53,1.53,3.14,2.484,4.681c0.445,0.73,0.951,1.463,1.46,2.268&#10;&#9;&#9;&#9;&#9;c0.448,0.655,0.883,1.32,1.324,2.047c-1.904-1.83-3.88-3.585-5.931-5.269c-4.169-3.514-8.556-6.732-13.098-9.73&#10;&#9;&#9;&#9;&#9;c0.654-2.05,0.946-4.314,0.736-6.807c-0.149-1.389-0.441-2.855-0.887-4.315c-0.512-1.467-1.171-3.005-2.039-4.536&#10;&#9;&#9;&#9;&#9;c-1.688-3.15-4.102-5.931-6.957-8.63c-2.926-2.492-6.294-4.917-9.947-6.668c-0.37,2.417-0.082,5.052,0.723,7.758&#10;&#9;&#9;&#9;&#9;c0.805,2.78,2.059,5.632,3.956,8.487c2.712,4.393,6.151,8.345,10.1,11.926c-0.37-0.213-0.733-0.438-1.104-0.655l-4.974-2.855&#10;&#9;&#9;&#9;&#9;l-5.115-2.635c-0.805-0.441-1.688-0.805-2.563-1.242l-2.639-1.171c-0.876-0.363-1.759-0.805-2.634-1.175l-2.628-1.022&#10;&#9;&#9;&#9;&#9;l-0.299,0.805c0.366-2.41,0.217-4.98-0.58-7.683c-0.887-2.635-2.414-5.34-4.761-8.05c-4.685-5.269-11.78-9.513-19.758-11.414&#10;&#9;&#9;&#9;&#9;c0.366,4.974,3.146,9.954,7.899,14.924c0.584,0.591,1.253,1.167,1.833,1.759c0.659,0.591,1.239,1.167,1.977,1.755&#10;&#9;&#9;&#9;&#9;c1.317,1.171,2.702,2.196,4.165,3.15c2.859,2.119,6.006,3.87,9.225,5.558l0,0c-3.442-1.093-7.028-1.463-10.464-1.463&#10;&#9;&#9;&#9;&#9;c-1.751,0.071-3.438,0.292-5.044,0.587c-0.805,0.149-1.613,0.296-2.414,0.517c-0.808,0.213-1.542,0.505-2.346,0.797&#10;&#9;&#9;&#9;&#9;c-5.999,2.342-9.659,6.519-11.343,10.979c6.22,0.214,12.439-0.221,18.367-2.342c2.922-0.954,5.561-2.264,7.761-3.806&#10;&#9;&#9;&#9;&#9;c2.189-1.463,4.016-3.293,5.415-5.344l-0.299,0.812l2.641,1.021c0.873,0.359,1.752,0.729,2.557,1.164l2.557,1.175&#10;&#9;&#9;&#9;&#9;c0.886,0.367,1.766,0.733,2.57,1.246l5.044,2.56l4.902,2.781c0.292,0.142,0.591,0.363,0.88,0.512&#10;&#9;&#9;&#9;&#9;c-4.906-1.684-10.021-2.2-14.636-1.459c-3.222,0.583-5.932,1.605-8.128,3.068c-2.268,1.46-4.02,3.297-5.27,5.415&#10;&#9;&#9;&#9;&#9;c3.002,0.73,6.088,1.463,9.157,1.613c3.069,0.363,6.216,0.217,9.284-0.071c1.546-0.142,3.006-0.441,4.473-0.812&#10;&#9;&#9;&#9;&#9;c1.381-0.363,2.698-0.73,3.951-1.246c2.189-0.875,4.098-2.119,5.699-3.503c4.473,2.998,8.783,6.138,12.952,9.655&#10;&#9;&#9;&#9;&#9;c2.058,1.681,3.955,3.439,5.85,5.198c-0.651-0.438-1.382-0.805-2.04-1.175c-0.805-0.363-1.609-0.733-2.41-1.096&#10;&#9;&#9;&#9;&#9;c-1.613-0.659-3.226-1.246-4.835-1.613c-1.609-0.359-3.293-0.587-4.823-0.651c-0.816-0.078-1.542-0.078-2.347,0&#10;&#9;&#9;&#9;&#9;c-0.805,0.064-1.542,0.143-2.265,0.214c-1.463,0.221-2.78,0.591-4.029,1.097c-1.239,0.441-2.336,1.028-3.439,1.758&#10;&#9;&#9;&#9;&#9;c-1.025,0.733-1.979,1.538-2.845,2.414c0.723,0.367,1.378,0.662,2.118,1.025c0.727,0.37,1.385,0.662,2.119,0.951&#10;&#9;&#9;&#9;&#9;c0.726,0.295,1.463,0.587,2.192,0.808c0.737,0.292,1.464,0.506,2.2,0.805c1.46,0.513,2.998,0.805,4.532,1.168&#10;&#9;&#9;&#9;&#9;c1.542,0.37,3.001,0.591,4.61,0.733c0.805,0.074,1.541,0.074,2.343,0.146c0.733,0,1.463,0.075,2.203,0&#10;&#9;&#9;&#9;&#9;c1.46-0.071,2.841-0.224,4.158-0.438c1.321-0.221,2.639-0.588,3.81-1.097c0.887-0.37,1.755-0.733,2.557-1.171&#10;&#9;&#9;&#9;&#9;c2.203,2.268,4.321,4.54,6.443,6.95c3.147,3.663,6.074,7.465,8.854,11.417c-1.242-1.1-2.488-2.193-3.809-3.147&#10;&#9;&#9;&#9;&#9;c-1.46-0.954-2.927-1.83-4.387-2.484c-0.732-0.371-1.463-0.733-2.268-0.954c-0.805-0.292-1.541-0.509-2.346-0.733&#10;&#9;&#9;&#9;&#9;c-1.535-0.363-3.069-0.659-4.465-0.727c-1.459-0.078-2.848,0-4.165,0.217c-2.631,0.438-4.978,1.392-6.953,2.709&#10;&#9;&#9;&#9;&#9;c4.902,3.873,10.246,7.166,16.245,8.921c2.923,0.958,5.85,1.396,8.563,1.467c2.342,0.071,4.613-0.217,6.653-0.875&#10;&#9;&#9;&#9;&#9;c0.517,0.804,1.029,1.534,1.464,2.339c3.663,5.999,6.881,12.296,9.59,18.733c-3.001-4.244-6.807-7.608-10.896-9.73&#10;&#9;&#9;&#9;&#9;c-2.931-1.392-5.715-2.122-8.346-2.271c-2.705-0.149-5.194,0.367-7.465,1.246c0.512,0.584,1.028,1.167,1.537,1.751&#10;&#9;&#9;&#9;&#9;c0.513,0.591,1.019,1.171,1.531,1.759c1.029,1.171,2.203,2.193,3.371,3.219c2.268,2.05,4.902,3.88,7.537,5.418&#10;&#9;&#9;&#9;&#9;c1.32,0.727,2.706,1.389,4.102,1.901c1.316,0.506,2.631,0.947,3.944,1.317c2.271,0.584,4.543,0.729,6.739,0.513&#10;&#9;&#9;&#9;&#9;c2.186,5.781,4.02,11.776,5.411,17.851c0.363,1.68,0.73,3.438,1.097,5.119c-0.292-0.727-0.587-1.381-0.947-2.118&#10;&#9;&#9;&#9;&#9;c-0.448-0.805-0.886-1.534-1.32-2.268c-0.947-1.46-1.83-2.852-2.927-4.095c-1.104-1.246-2.271-2.421-3.51-3.368&#10;&#9;&#9;&#9;&#9;c-0.662-0.516-1.246-0.954-1.901-1.392c-0.666-0.438-1.317-0.801-1.976-1.093c-1.317-0.666-2.639-1.175-3.888-1.467&#10;&#9;&#9;&#9;&#9;c-1.239-0.363-2.557-0.513-3.799-0.591c-1.246-0.071-2.485,0.078-3.738,0.299c0.374,0.655,0.74,1.389,1.107,2.051&#10;&#9;&#9;&#9;&#9;c0.355,0.655,0.727,1.317,1.16,1.972c0.445,0.662,0.887,1.317,1.321,1.979c0.444,0.655,0.879,1.317,1.317,1.901&#10;&#9;&#9;&#9;&#9;c0.879,1.239,1.908,2.414,3.001,3.585c1.028,1.165,2.118,2.268,3.293,3.293c2.41,2.05,4.685,3.656,7.17,4.828&#10;&#9;&#9;&#9;&#9;c2.118,1.025,4.315,1.609,6.519,1.901c0.577,3.952,1.015,7.904,1.239,11.855c0.224,3.952,0.366,7.975,0.292,12.001&#10;&#9;&#9;&#9;&#9;c-0.149-0.73-0.292-1.542-0.517-2.271c-0.214-0.876-0.509-1.681-0.805-2.481c-0.58-1.609-1.235-3.222-2.04-4.614&#10;&#9;&#9;&#9;&#9;c-0.805-1.46-1.762-2.78-2.78-4.023c-1.028-1.246-2.058-2.339-3.226-3.222c-1.168-0.875-2.342-1.68-3.51-2.268&#10;&#9;&#9;&#9;&#9;c-2.421-1.171-4.831-1.83-7.245-1.901c0.366,1.535,0.805,3.005,1.385,4.465l0.448,1.097l0.363,1.096&#10;&#9;&#9;&#9;&#9;c0.292,0.733,0.584,1.463,0.876,2.122c1.389,2.855,2.858,5.562,4.753,8.05c3.442,4.685,7.615,7.979,12.005,9.438&#10;&#9;&#9;&#9;&#9;c-0.082,1.759-0.225,3.514-0.37,5.273c-0.58,6.145-1.605,12.293-2.99,18.367c0.067-5.198-1.029-10.175-3.151-14.34&#10;&#9;&#9;&#9;&#9;c-1.538-2.855-3.293-5.126-5.411-6.736c-2.122-1.688-4.4-2.777-6.736-3.368c0.068,1.538,0.293,3.147,0.438,4.685&#10;&#9;&#9;&#9;&#9;c0.143,1.538,0.435,3.069,0.879,4.614c0.584,2.997,1.681,5.995,2.931,8.779c0.654,1.388,1.381,2.705,2.196,3.951&#10;&#9;&#9;&#9;&#9;c0.727,1.246,1.53,2.339,2.41,3.368c1.538,1.751,3.293,3.215,5.123,4.315c-2.054,7.679-4.835,15.145-8.128,22.318&#10;&#9;&#9;&#9;&#9;c1.111-5.052,1.111-10.1-0.221-14.639c-0.434-1.534-0.95-2.994-1.605-4.24c-0.662-1.317-1.467-2.485-2.271-3.514&#10;&#9;&#9;&#9;&#9;c-1.684-2.047-3.66-3.589-5.846-4.682c-0.961,6.145-1.025,12.51,0.435,18.584c1.317,5.71,3.728,10.317,7.17,13.393&#10;&#9;&#9;&#9;&#9;c-3.585,7.099-7.754,13.977-12.518,20.339c2.136-4.752,3.226-9.801,2.858-14.486c-0.148-3.147-1.096-6.003-2.268-8.417&#10;&#9;&#9;&#9;&#9;c-0.591-1.167-1.316-2.268-2.121-3.218c-0.809-0.954-1.685-1.83-2.71-2.56c-2.192,5.856-3.51,12.072-3.293,18.292&#10;&#9;&#9;&#9;&#9;c0,3.072,0.509,6.002,1.321,8.565c0.651,2.264,1.68,4.24,2.997,5.995c-1.608,2.055-3.293,4.023-4.974,5.928&#10;&#9;&#9;&#9;&#9;c-3.588,4.03-7.395,7.832-11.413,11.488c3.065-4.169,5.115-8.925,5.699-13.61c0.805-6.365-0.876-11.56-4.098-15.294&#10;&#9;&#9;&#9;&#9;c-3.36,5.269-5.849,11.122-6.942,17.27c-0.591,3.073-0.74,5.928-0.448,8.633c0.225,2.343,0.805,4.539,1.688,6.515&#10;&#9;&#9;&#9;&#9;c-6.073,5.048-12.581,9.583-19.396,13.46c-0.064,0.071-0.143,0.071-0.288,0.15c3.873-3.436,6.878-7.615,8.487-12.147&#10;&#9;&#9;&#9;&#9;c1.1-3.001,1.392-5.928,1.246-8.563c-0.221-2.634-0.958-5.123-2.119-7.248c-4.321,4.468-7.906,9.658-10.324,15.373&#10;&#9;&#9;&#9;&#9;c-1.16,2.852-1.976,5.632-2.271,8.345c-0.288,2.332-0.142,4.607,0.296,6.732c-11.702,6.074-24.365,10.313-37.317,12.585&#10;&#9;&#9;&#9;&#9;l0.292,1.68c13.177-2.271,25.979-6.586,37.841-12.738c1.459,1.617,3.279,3.005,5.558,3.952c1.238,0.516,2.702,0.954,4.243,1.246&#10;&#9;&#9;&#9;&#9;c1.531,0.295,3.211,0.513,4.963,0.441c7.103,0,14.863-2.78,21.663-7.462c-1.965-1.463-4.39-2.492-7.17-3.144&#10;&#9;&#9;&#9;&#9;c-2.776-0.666-5.924-0.809-9.284-0.666c-5.053,0.299-10.172,1.392-15.227,3.005c0.074-0.071,0.217-0.071,0.299-0.143&#10;&#9;&#9;&#9;&#9;c6.949-3.955,13.528-8.573,19.68-13.621c1.756,1.246,3.877,2.2,6.284,2.717c2.713,0.509,5.863,0.509,9.37-0.225&#10;&#9;&#9;&#9;&#9;c6.878-1.463,13.909-5.782,19.538-11.706c-4.458-2.051-10.317-2.129-16.9-0.295c-1.681,0.438-3.293,0.954-4.905,1.605&#10;&#9;&#9;&#9;&#9;c-1.685,0.591-3.293,1.324-4.82,2.122c-0.813,0.37-1.617,0.812-2.347,1.253c-0.729,0.359-1.463,0.805-2.122,1.171&#10;&#9;&#9;&#9;&#9;c4.102-3.663,7.975-7.543,11.635-11.638c1.752-1.979,3.439-3.955,5.045-6.002c1.976,0.883,4.244,1.317,6.732,1.317&#10;&#9;&#9;&#9;&#9;c2.78,0,5.859-0.73,9.082-2.122c6.439-2.852,12.432-8.413,16.754-15.444c-1.172-0.285-2.418-0.431-3.731-0.431&#10;&#9;&#9;&#9;&#9;s-2.709,0.146-4.098,0.359c-2.784,0.517-5.714,1.616-8.782,3.08c-4.465,2.264-8.787,5.336-12.735,8.854&#10;&#9;&#9;&#9;&#9;c4.827-6.515,9.079-13.464,12.735-20.713c4.531,0.954,9.879-0.071,15.365-3.951c5.714-4.098,10.537-10.759,13.393-18.513&#10;&#9;&#9;&#9;&#9;c-2.488-0.071-5.052,0.434-7.679,1.538c-1.317,0.505-2.635,1.246-3.956,2.043c-1.313,0.805-2.712,1.759-4.029,2.784&#10;&#9;&#9;&#9;&#9;c-4.02,3.147-7.608,7.099-10.748,11.414c3.436-7.391,6.216-15.074,8.409-22.978c2.196,0,4.39-0.434,6.661-1.459&#10;&#9;&#9;&#9;&#9;c1.234-0.587,2.556-1.317,3.873-2.197c1.253-0.947,2.488-2.054,3.663-3.371c2.492-2.557,4.386-5.774,5.999-9.285&#10;&#9;&#9;&#9;&#9;c0.733-1.759,1.393-3.663,1.976-5.564c0.591-1.901,0.958-3.948,1.246-5.999C1105.225,375.544,1102.811,376.645,1100.468,378.25z" fill="#AD8B3A"/>
			<path d="M845.603,484.798c-0.299-2.713-1.101-5.497-2.279-8.349c-2.335-5.704-5.924-10.901-10.316-15.366&#10;&#9;&#9;&#9;&#9;c-1.164,2.125-1.973,4.539-2.122,7.245c-0.143,2.635,0.149,5.561,1.253,8.566c1.538,4.464,4.528,8.629,8.487,12.147&#10;&#9;&#9;&#9;&#9;c-0.078-0.078-0.149-0.078-0.292-0.149c-6.878-3.88-13.322-8.416-19.396-13.464c0.883-1.972,1.467-4.176,1.688-6.515&#10;&#9;&#9;&#9;&#9;c0.292-2.706,0.143-5.632-0.444-8.633c-1.097-6.141-3.586-12.001-6.946-17.267c-3.226,3.656-4.978,8.854-4.098,15.291&#10;&#9;&#9;&#9;&#9;c0.58,4.757,2.631,9.438,5.707,13.607c-4.026-3.582-7.829-7.391-11.414-11.485c-1.763-1.901-3.371-3.952-4.98-5.924&#10;&#9;&#9;&#9;&#9;c1.321-1.759,2.268-3.806,3.005-6.002c0.801-2.563,1.307-5.486,1.307-8.566c0.16-6.287-1.094-12.432-3.283-18.292&#10;&#9;&#9;&#9;&#9;c-0.961,0.733-1.829,1.609-2.713,2.563c-0.804,0.947-1.541,2.051-2.121,3.219c-1.254,2.342-2.118,5.194-2.265,8.416&#10;&#9;&#9;&#9;&#9;c-0.37,4.756,0.659,9.737,2.845,14.489c-4.756-6.44-8.918-13.243-12.503-20.346c3.438-3.144,5.849-7.754,7.166-13.39&#10;&#9;&#9;&#9;&#9;c1.393-6.074,1.393-12.439,0.438-18.584c-2.189,1.025-4.166,2.56-5.854,4.685c-0.879,1.025-1.605,2.189-2.268,3.51&#10;&#9;&#9;&#9;&#9;c-0.654,1.313-1.168,2.706-1.616,4.244c-1.239,4.464-1.307,9.584-0.21,14.632c-3.293-7.17-6.002-14.703-8.128-22.308&#10;&#9;&#9;&#9;&#9;c1.83-1.111,3.593-2.571,5.123-4.322c0.883-1.029,1.688-2.122,2.414-3.368c0.801-1.246,1.538-2.563,2.196-3.951&#10;&#9;&#9;&#9;&#9;c1.25-2.781,2.347-5.782,2.927-8.783c0.366-1.534,0.655-3.072,0.879-4.61c0.146-1.538,0.37-3.069,0.438-4.682&#10;&#9;&#9;&#9;&#9;c-2.343,0.584-4.61,1.681-6.736,3.364c-2.118,1.688-3.873,3.881-5.411,6.732c-2.122,4.169-3.222,9.146-3.147,14.344&#10;&#9;&#9;&#9;&#9;c-1.389-6.07-2.417-12.147-2.994-18.37c-0.156-1.752-0.303-3.511-0.37-5.269c4.39-1.459,8.487-4.756,12.005-9.438&#10;&#9;&#9;&#9;&#9;c1.895-2.488,3.361-5.19,4.757-8.05c0.288-0.733,0.655-1.385,0.876-2.122l0.359-1.093l0.438-1.1&#10;&#9;&#9;&#9;&#9;c0.591-1.463,1.025-2.927,1.396-4.465c-2.413,0.071-4.835,0.655-7.245,1.901c-1.175,0.584-2.332,1.389-3.51,2.271&#10;&#9;&#9;&#9;&#9;c-1.168,0.876-2.197,1.973-3.226,3.222c-1.019,1.239-1.973,2.631-2.776,4.02c-0.73,1.46-1.464,3.005-2.044,4.61&#10;&#9;&#9;&#9;&#9;c-0.299,0.805-0.591,1.609-0.815,2.488c-0.146,0.733-0.355,1.538-0.509,2.268c-0.071-4.019,0-7.971,0.295-12.001&#10;&#9;&#9;&#9;&#9;c0.214-3.951,0.662-7.975,1.243-11.852c2.121-0.217,4.318-0.875,6.515-1.904c2.495-1.175,4.753-2.777,7.17-4.828&#10;&#9;&#9;&#9;&#9;c1.175-1.022,2.265-2.129,3.293-3.296c1.025-1.168,2.044-2.336,3.005-3.582c0.438-0.662,0.872-1.246,1.317-1.904&#10;&#9;&#9;&#9;&#9;c0.438-0.659,0.872-1.313,1.313-1.976c0.438-0.659,0.809-1.317,1.172-1.972c0.363-0.662,0.733-1.392,1.1-2.051&#10;&#9;&#9;&#9;&#9;c-1.171-0.221-2.417-0.299-3.741-0.299c-1.239,0.078-2.485,0.224-3.796,0.591c-1.249,0.367-2.566,0.805-3.887,1.467&#10;&#9;&#9;&#9;&#9;c-0.655,0.292-1.314,0.729-1.969,1.089c-0.662,0.445-1.243,0.883-1.901,1.392c-1.25,1.029-2.414,2.125-3.521,3.368&#10;&#9;&#9;&#9;&#9;c-1.089,1.242-2.043,2.634-2.923,4.098c-0.438,0.733-0.875,1.459-1.316,2.271c-0.367,0.655-0.659,1.388-0.947,2.122&#10;&#9;&#9;&#9;&#9;c0.363-1.758,0.654-3.446,1.093-5.126c1.396-6.074,3.226-11.994,5.411-17.851c2.129,0.217,4.39,0.071,6.736-0.513&#10;&#9;&#9;&#9;&#9;c1.313-0.299,2.631-0.733,3.951-1.317c1.393-0.513,2.713-1.168,4.098-1.905c2.631-1.534,5.27-3.293,7.533-5.415&#10;&#9;&#9;&#9;&#9;c1.175-1.022,2.347-2.051,3.375-3.215c0.51-0.595,1.029-1.172,1.538-1.759c0.506-0.588,1.019-1.171,1.531-1.759&#10;&#9;&#9;&#9;&#9;c-2.265-0.879-4.757-1.392-7.459-1.242c-2.642,0.149-5.415,0.879-8.349,2.268c-4.101,2.125-7.971,5.489-10.897,9.729&#10;&#9;&#9;&#9;&#9;c2.702-6.437,5.928-12.73,9.577-18.726c0.513-0.812,1.029-1.542,1.471-2.346c2.047,0.659,4.311,0.951,6.657,0.883&#10;&#9;&#9;&#9;&#9;c2.709-0.078,5.639-0.513,8.562-1.467c5.999-1.833,11.343-5.052,16.245-8.925c-1.972-1.317-4.318-2.268-6.953-2.709&#10;&#9;&#9;&#9;&#9;c-1.317-0.217-2.709-0.295-4.169-0.217c-1.47,0.064-2.934,0.363-4.461,0.73c-0.805,0.217-1.541,0.438-2.346,0.733&#10;&#9;&#9;&#9;&#9;c-0.805,0.289-1.541,0.581-2.264,0.947c-1.464,0.733-3.006,1.542-4.391,2.489c-1.324,0.951-2.57,1.979-3.806,3.147&#10;&#9;&#9;&#9;&#9;c2.773-3.948,5.704-7.754,8.851-11.421c2.044-2.406,4.173-4.682,6.437-6.942c0.812,0.435,1.616,0.869,2.563,1.168&#10;&#9;&#9;&#9;&#9;c1.172,0.441,2.492,0.805,3.81,1.093c1.313,0.225,2.698,0.445,4.165,0.445c0.733,0,1.46,0,2.2,0c0.729,0,1.534-0.078,2.339-0.149&#10;&#9;&#9;&#9;&#9;c1.538-0.143,3.072-0.367,4.614-0.733c1.527-0.292,3.069-0.655,4.532-1.168c0.736-0.221,1.467-0.513,2.196-0.805&#10;&#9;&#9;&#9;&#9;c0.729-0.217,1.467-0.513,2.189-0.812c0.741-0.288,1.464-0.577,2.126-0.947c0.736-0.363,1.392-0.733,2.125-1.021&#10;&#9;&#9;&#9;&#9;c-0.879-0.876-1.83-1.688-2.855-2.417c-1.028-0.662-2.2-1.246-3.436-1.751c-1.253-0.441-2.56-0.805-4.033-1.1&#10;&#9;&#9;&#9;&#9;c-0.723-0.146-1.46-0.217-2.265-0.217c-0.723,0-1.541,0-2.346,0c-1.605,0.071-3.215,0.289-4.824,0.655&#10;&#9;&#9;&#9;&#9;c-1.609,0.37-3.226,0.954-4.835,1.609c-0.805,0.37-1.602,0.658-2.406,1.104c-0.662,0.359-1.399,0.797-2.055,1.164&#10;&#9;&#9;&#9;&#9;c1.905-1.826,3.807-3.585,5.86-5.194c4.098-3.439,8.483-6.657,12.948-9.655c1.609,1.46,3.582,2.628,5.707,3.511&#10;&#9;&#9;&#9;&#9;c1.246,0.505,2.56,0.875,3.955,1.239c1.381,0.37,2.923,0.666,4.465,0.812c3.068,0.292,6.216,0.435,9.284,0.071&#10;&#9;&#9;&#9;&#9;c3.144-0.217,6.155-0.883,9.149-1.616c-1.324-2.04-3.075-3.874-5.272-5.412c-2.189-1.467-4.902-2.492-8.116-3.068&#10;&#9;&#9;&#9;&#9;c-4.611-0.733-9.734-0.228-14.637,1.459c0.296-0.146,0.584-0.363,0.88-0.513l4.902-2.777l5.048-2.563&#10;&#9;&#9;&#9;&#9;c0.805-0.445,1.685-0.805,2.561-1.246l2.563-1.168c0.883-0.37,1.688-0.804,2.563-1.175l2.628-1.025l-0.652-1.609l-2.642,1.033&#10;&#9;&#9;&#9;&#9;c-0.868,0.359-1.751,0.797-2.627,1.164l-2.631,1.171c-0.883,0.371-1.763,0.805-2.567,1.246l-5.123,2.628l-4.97,2.858&#10;&#9;&#9;&#9;&#9;c-0.37,0.217-0.737,0.438-1.106,0.659c3.887-3.66,7.391-7.608,10.1-11.923c1.837-2.859,3.154-5.714,3.959-8.498&#10;&#9;&#9;&#9;&#9;c0.794-2.702,1.015-5.336,0.723-7.747c-3.725,1.751-7.021,4.165-9.947,6.653c-2.855,2.706-5.269,5.486-6.953,8.63&#10;&#9;&#9;&#9;&#9;c-0.875,1.542-1.527,3.08-2.043,4.546c-0.513,1.459-0.737,2.926-0.887,4.315c-0.221,2.488,0.082,4.764,0.733,6.804&#10;&#9;&#9;&#9;&#9;c-4.539,3.001-8.922,6.219-13.102,9.729c-2.043,1.688-4.019,3.446-5.917,5.269c0.438-0.655,0.873-1.317,1.314-2.047&#10;&#9;&#9;&#9;&#9;c0.505-0.729,0.95-1.463,1.459-2.268c0.958-1.531,1.763-3.069,2.485-4.682c0.808-1.534,1.467-3.15,2.058-4.76&#10;&#9;&#9;&#9;&#9;c0.285-0.805,0.509-1.602,0.805-2.414c0.217-0.804,0.431-1.538,0.655-2.268c0.362-1.534,0.58-3.001,0.658-4.386&#10;&#9;&#9;&#9;&#9;c0.078-1.399,0.078-2.788-0.078-4.105c-0.146-1.31-0.438-2.485-0.805-3.656c-0.805,0.587-1.609,1.321-2.335,1.976&#10;&#9;&#9;&#9;&#9;c-0.734,0.658-1.467,1.388-2.193,2.122c-0.74,0.733-1.393,1.459-2.044,2.2c-0.665,0.804-1.253,1.527-1.766,2.339&#10;&#9;&#9;&#9;&#9;c-1.097,1.613-2.189,3.144-2.997,4.831c-0.813,1.68-1.538,3.361-2.048,5.042c-0.292,0.812-0.516,1.688-0.662,2.492&#10;&#9;&#9;&#9;&#9;c-0.142,0.805-0.292,1.609-0.366,2.417c-0.146,1.534-0.146,2.994,0,4.39c0.143,1.389,0.448,2.706,0.879,3.88&#10;&#9;&#9;&#9;&#9;c0.363,0.947,0.805,1.83,1.239,2.634c-2.187,2.265-4.383,4.607-6.508,7.021c-3.222,3.734-6.22,7.612-9.075,11.634&#10;&#9;&#9;&#9;&#9;c0.655-1.609,1.317-3.147,1.83-4.827c0.576-1.681,1.093-3.368,1.538-5.049c0.221-0.875,0.363-1.68,0.509-2.563&#10;&#9;&#9;&#9;&#9;c0.153-0.805,0.363-1.688,0.445-2.563c0.221-1.681,0.367-3.293,0.367-4.899c0-1.538,0-2.998-0.225-4.468&#10;&#9;&#9;&#9;&#9;c-0.367-2.78-1.242-5.336-2.488-7.387c-5.337,6.294-8.563,13.905-9.289,20.855c-0.292,3.588,0.071,6.657,0.872,9.292&#10;&#9;&#9;&#9;&#9;c0.809,2.347,1.977,4.322,3.436,5.928c-0.509,0.805-1.015,1.535-1.526,2.347c-3.731,6.141-7.024,12.581-9.884,19.238&#10;&#9;&#9;&#9;&#9;c1.029-5.269,1.534-10.463,1.172-15.582c-0.143-3.365-0.805-6.44-1.752-9.153c-0.961-2.635-2.278-4.899-3.952-6.729&#10;&#9;&#9;&#9;&#9;c-0.516,0.883-0.953,1.83-1.395,2.713c-0.435,0.947-0.805,1.897-1.098,2.848c-0.654,1.901-1.245,3.806-1.684,5.711&#10;&#9;&#9;&#9;&#9;c-0.729,3.88-1.096,7.533-0.587,11.122c0.224,1.755,0.587,3.361,1.025,4.831c0.513,1.463,1.104,2.852,1.826,4.026&#10;&#9;&#9;&#9;&#9;c1.253,2.122,2.787,3.802,4.542,5.044c-2.196,5.85-4.094,11.931-5.489,18.075c-0.438,1.759-0.805,3.51-1.093,5.269&#10;&#9;&#9;&#9;&#9;c0-0.801-0.078-1.605-0.078-2.413c0-0.88-0.068-1.759-0.146-2.635c-0.143-1.755-0.434-3.514-0.729-5.272&#10;&#9;&#9;&#9;&#9;c-0.299-1.681-0.655-3.364-1.171-5.045c-0.225-0.805-0.51-1.616-0.809-2.414c-0.214-0.733-0.506-1.538-0.809-2.2&#10;&#9;&#9;&#9;&#9;c-0.58-1.459-1.238-2.777-2.043-3.945c-0.733-1.246-1.609-2.271-2.488-3.297c-0.88-0.954-1.834-1.755-2.863-2.484&#10;&#9;&#9;&#9;&#9;c-0.284,0.947-0.498,1.972-0.723,2.997c-0.224,1.025-0.366,1.973-0.512,3.005c-0.143,1.019-0.293,1.973-0.367,2.994&#10;&#9;&#9;&#9;&#9;c-0.067,1.029-0.067,1.976-0.067,2.93c0,1.973,0.142,3.874,0.366,5.707c0.292,1.827,0.723,3.585,1.303,5.27&#10;&#9;&#9;&#9;&#9;c1.111,3.364,2.792,6.069,4.618,8.12c1.681,1.83,3.514,3.144,5.486,4.026c-0.577,3.948-1.093,7.972-1.317,11.998&#10;&#9;&#9;&#9;&#9;c-0.214,4.098-0.363,8.128-0.285,12.226c-0.225-0.809-0.37-1.613-0.595-2.417c-0.21-0.883-0.435-1.68-0.723-2.563&#10;&#9;&#9;&#9;&#9;c-0.513-1.688-1.097-3.368-1.766-4.974c-0.651-1.613-1.307-3.222-2.114-4.682c-0.809-1.538-1.681-2.934-2.563-4.173&#10;&#9;&#9;&#9;&#9;c-0.883-1.246-1.83-2.414-2.78-3.438c-1.977-2.047-4.098-3.589-6.44-4.54c-0.067,2.047-0.067,4.098,0,6.077l0.074,1.459&#10;&#9;&#9;&#9;&#9;l0.222,1.467c0.142,0.954,0.288,1.973,0.509,2.923c0.733,3.806,2.2,7.323,3.951,10.392c3.439,5.704,7.903,8.783,12.439,9.805&#10;&#9;&#9;&#9;&#9;c0.071,1.759,0.221,3.517,0.366,5.269c0.592,6.362,1.688,12.589,3.076,18.805c-2.193-4.828-4.906-9.359-8.199-13.312&#10;&#9;&#9;&#9;&#9;c-2.125-2.642-4.539-4.76-6.803-6.369c-2.343-1.616-4.757-2.634-7.174-3.076c0.295,2.054,0.651,4.03,1.246,6.006&#10;&#9;&#9;&#9;&#9;c0.588,1.897,1.238,3.802,1.976,5.554c1.685,3.517,3.585,6.739,6.003,9.295c1.167,1.317,2.417,2.41,3.656,3.372&#10;&#9;&#9;&#9;&#9;c1.316,0.947,2.556,1.68,3.88,2.197c2.269,1.018,4.539,1.459,6.657,1.459c2.122,7.904,4.978,15.579,8.42,22.977&#10;&#9;&#9;&#9;&#9;c-3.226-4.315-6.732-8.267-10.762-11.414c-1.317-1.104-2.702-1.979-4.023-2.784c-1.313-0.805-2.631-1.459-3.948-2.054&#10;&#9;&#9;&#9;&#9;c-2.638-1.093-5.201-1.605-7.687-1.527c2.849,7.679,7.605,14.411,13.387,18.513c5.418,3.877,10.833,4.898,15.365,3.952&#10;&#9;&#9;&#9;&#9;c3.66,7.242,7.907,14.12,12.738,20.702c-3.952-3.51-8.191-6.583-12.738-8.854c-3.068-1.534-5.995-2.556-8.775-3.069&#10;&#9;&#9;&#9;&#9;c-1.393-0.295-2.781-0.37-4.095-0.37c-1.317,0-2.566,0.146-3.73,0.441c4.312,6.949,10.381,12.51,16.757,15.444&#10;&#9;&#9;&#9;&#9;c3.286,1.389,6.287,2.118,9.068,2.118c2.488,0,4.688-0.438,6.732-1.313c1.612,2.043,3.293,4.094,5.048,5.999&#10;&#9;&#9;&#9;&#9;c3.656,4.098,7.54,7.971,11.642,11.631c-0.737-0.438-1.396-0.801-2.125-1.168c-0.805-0.445-1.613-0.805-2.34-1.246&#10;&#9;&#9;&#9;&#9;c-1.616-0.805-3.225-1.463-4.834-2.122c-1.609-0.658-3.219-1.167-4.902-1.609c-6.586-1.751-12.439-1.688-16.903,0.292&#10;&#9;&#9;&#9;&#9;c5.636,5.927,12.663,10.246,19.541,11.712c3.436,0.727,6.661,0.727,9.367,0.214c2.406-0.513,4.532-1.46,6.298-2.706&#10;&#9;&#9;&#9;&#9;c6.138,5.126,12.727,9.659,19.68,13.607c0.068,0.078,0.211,0.078,0.292,0.149c-5.048-1.609-10.175-2.706-15.22-2.998&#10;&#9;&#9;&#9;&#9;c-3.442-0.146-6.518,0-9.299,0.652c-2.78,0.666-5.193,1.613-7.17,3.158c6.732,4.682,14.561,7.462,21.652,7.462&#10;&#9;&#9;&#9;&#9;c1.763,0.071,3.447-0.146,4.988-0.441c1.531-0.299,2.923-0.733,4.244-1.246c2.264-0.95,4.098-2.342,5.557-3.952&#10;&#9;&#9;&#9;&#9;c11.859,6.145,24.665,10.467,37.837,12.731l0.285-1.68c-13.022-2.197-25.604-6.515-37.317-12.588&#10;&#9;&#9;&#9;&#9;C845.741,489.4,845.895,487.133,845.603,484.798z" fill="#AD8B3A"/>
			<path d="M870.989,225.681c0.659-0.587,1.321-1.171,1.977-1.759c0.658-0.58,1.238-1.171,1.833-1.755&#10;&#9;&#9;&#9;&#9;c4.753-4.977,7.533-9.951,7.896-14.931c-7.979,1.905-15.145,6.227-19.755,11.417c-2.343,2.713-3.874,5.415-4.757,8.049&#10;&#9;&#9;&#9;&#9;c-0.805,2.706-1.028,5.269-0.587,7.69c3.222-1.688,6.369-3.446,9.221-5.564C868.284,227.874,869.673,226.845,870.989,225.681z" fill="#AD8B3A"/>
			<path d="M877.868,234.898c-0.734-0.292-1.542-0.584-2.34-0.805c-0.812-0.217-1.616-0.37-2.42-0.512&#10;&#9;&#9;&#9;&#9;c-1.603-0.292-3.29-0.517-5.045-0.584c-3.436,0-7.024,0.363-10.467,1.467c1.392,2.047,3.222,3.798,5.418,5.34&#10;&#9;&#9;&#9;&#9;c2.193,1.538,4.824,2.852,7.754,3.81c5.924,2.043,12.15,2.556,18.363,2.335C887.526,241.342,883.796,237.169,877.868,234.898z" fill="#AD8B3A"/>
			<path d="M926.897,202.337l6.066,12.147l13.397,1.972l-9.733,9.513l2.342,13.393l-12.072-6.365l-11.997,6.365&#10;&#9;&#9;&#9;&#9;l2.331-13.393l-9.726-9.513l13.394-1.972L926.897,202.337z" fill="#AD8B3A"/>
			<path d="M926.897,477.62l6.066,12.219l13.397,1.979l-9.733,9.441l2.342,13.39l-12.072-6.298l-11.997,6.298&#10;&#9;&#9;&#9;&#9;l2.331-13.39l-9.726-9.441l13.394-1.979L926.897,477.62z" fill="#AD8B3A"/>
			<rect height="2.471" width="27.207" fill="#FDFEFF" y="412.435" x="915.316"/>
		</g>
	</g>
</g>
</svg>